# Blender v2.70 (sub 0) OBJ File: 'tda_miku_append.blend'
# www.blender.org
o eye_hi_Tda式ミク・アペンド.003
v 0.028528 0.397519 0.045204
v 0.028636 0.396409 0.045156
v 0.029901 0.396423 0.044707
v 0.031090 0.398885 0.044286
v 0.029160 0.396291 0.044970
v 0.028494 0.396876 0.045200
v 0.030581 0.399173 0.044467
v 0.031197 0.398445 0.044249
v 0.029783 0.399014 0.044752
v 0.031132 0.397699 0.044273
v 0.028991 0.398420 0.045030
v 0.030711 0.397013 0.044421
v 0.030025 0.397728 0.044959
v 0.029468 0.398118 0.045043
v 0.030370 0.397376 0.044724
v 0.017981 0.388230 0.047017
v 0.018095 0.386390 0.046771
v 0.020277 0.386189 0.046458
v 0.022606 0.390176 0.046602
v 0.019000 0.386091 0.046617
v 0.017809 0.387179 0.046914
v 0.021942 0.390439 0.046720
v 0.022805 0.389362 0.046484
v 0.020593 0.390326 0.046887
v 0.022655 0.388298 0.046382
v 0.019136 0.389615 0.047000
v 0.021647 0.387093 0.046379
v 0.020349 0.388239 0.047068
v 0.019624 0.389057 0.047097
v 0.021110 0.387512 0.046728
v 0.030565 0.398335 0.044656
v 0.029945 0.398542 0.044831
v 0.030676 0.397833 0.044563
v 0.029250 0.397016 0.045121
v 0.029121 0.397505 0.045138
v 0.029778 0.396945 0.044902
v 0.021714 0.389393 0.046859
v 0.020682 0.389577 0.046964
v 0.021676 0.388299 0.046697
v 0.019010 0.387111 0.046962
v 0.018943 0.388200 0.047045
v 0.020112 0.386924 0.046788
v -0.021048 0.397606 0.047216
v -0.020940 0.396409 0.047222
v -0.019566 0.396429 0.047452
v -0.018372 0.398885 0.047652
v -0.020354 0.396282 0.047320
v -0.021097 0.396920 0.047190
v -0.018905 0.399173 0.047564
v -0.018260 0.398445 0.047671
v -0.019741 0.399014 0.047425
v -0.018329 0.397699 0.047660
v -0.020568 0.398420 0.047285
v -0.018769 0.397013 0.047586
v -0.019629 0.397728 0.047724
v -0.020157 0.398118 0.047528
v -0.019214 0.397376 0.047686
v -0.031161 0.388230 0.043685
v -0.030943 0.386390 0.043525
v -0.028882 0.386189 0.044310
v -0.026915 0.390176 0.045564
v -0.030076 0.386091 0.043829
v -0.031261 0.387179 0.043511
v -0.027553 0.390439 0.045346
v -0.026683 0.389362 0.045558
v -0.028814 0.390326 0.044837
v -0.026765 0.388298 0.045395
v -0.030142 0.389615 0.044230
v -0.027646 0.387094 0.044904
v -0.029115 0.388239 0.044878
v -0.029763 0.389057 0.044551
v -0.028285 0.387512 0.044950
v -0.019010 0.398335 0.047721
v -0.019637 0.398542 0.047574
v -0.018869 0.397833 0.047694
v -0.020350 0.397059 0.047498
v -0.020488 0.397560 0.047446
v -0.019784 0.396978 0.047561
v -0.027820 0.389393 0.045357
v -0.028773 0.389577 0.044948
v -0.027775 0.388299 0.045197
v -0.030234 0.387111 0.044136
v -0.030333 0.388200 0.044176
v -0.029186 0.386924 0.044517
vt 0.534060 0.785530
vt 0.548570 0.806110
vt 0.525610 0.794070
vt 0.582660 0.774620
vt 0.555860 0.764470
vt 0.567520 0.755250
vt 0.507850 0.768910
vt 0.546840 0.740520
vt 0.654050 0.794260
vt 0.642470 0.800470
vt 0.641100 0.782510
vt 0.656580 0.784800
vt 0.625700 0.797900
vt 0.626970 0.787170
vt 0.615870 0.777650
vt 0.626540 0.769300
vt 0.636290 0.761780
vt 0.644470 0.771070
vt 0.655380 0.769610
vt 0.593910 0.749330
vt 0.598270 0.741010
vt 0.611310 0.754060
vt 0.609280 0.737980
vt 0.607060 0.766290
vt 0.594050 0.764410
vt 0.627860 0.740270
vt 0.624010 0.750960
vt 0.605920 0.784450
vt 0.645710 0.753580
vt 0.584700 0.794360
vt 0.580660 0.804330
vt 0.566540 0.792290
vt 0.570040 0.808360
vt 0.549470 0.795310
vt 0.544820 0.773770
vt 0.566170 0.775160
vt 0.507720 0.751800
vt 0.512600 0.742380
vt 0.525630 0.755080
vt 0.527070 0.738300
vt 0.523320 0.771780
vt 0.542860 0.752650
vn -0.000610 0.061403 0.998108
vn 0.081278 0.122415 0.989145
vn -0.051318 0.127954 0.990452
vn 0.311699 -0.169826 0.934881
vn 0.277230 -0.263558 0.923917
vn 0.324247 -0.325567 0.888184
vn -0.041599 -0.052894 0.997733
vn 0.204037 -0.367159 0.907504
vn 0.477194 0.128413 0.869365
vn 0.363192 0.208234 0.908147
vn 0.445204 0.088321 0.891049
vn 0.536447 0.017486 0.843753
vn 0.235739 0.249418 0.939264
vn 0.274331 0.212165 0.937925
vn 0.168249 0.158605 0.972869
vn 0.358013 -0.005371 0.933683
vn 0.490066 -0.156652 0.857479
vn 0.529527 -0.041658 0.847255
vn 0.536556 -0.062088 0.841578
vn 0.111801 -0.035279 0.993104
vn 0.195760 -0.141963 0.970322
vn 0.235298 -0.111576 0.965484
vn 0.316126 -0.235065 0.919135
vn 0.139378 0.036622 0.989532
vn 0.103514 0.041930 0.993744
vn 0.405851 -0.244288 0.880686
vn 0.383282 -0.214972 0.898251
vn 0.101097 0.204000 0.973737
vn 0.518334 -0.205190 0.830197
vn 0.317026 -0.103235 0.942782
vn 0.268232 0.011423 0.963287
vn 0.222816 -0.021638 0.974609
vn 0.164891 0.096056 0.981623
vn 0.097995 0.086917 0.991363
vn 0.130100 -0.100620 0.986358
vn 0.292398 -0.159581 0.942869
vn -0.044006 -0.134594 0.989923
vn -0.002280 -0.253672 0.967288
vn 0.026582 -0.201697 0.979064
vn 0.087766 -0.333733 0.938573
vn -0.026612 -0.060884 0.997772
vn 0.171361 -0.305032 0.936766
vn -0.484359 0.061373 0.872677
vn -0.408549 0.122094 0.904534
vn -0.524852 0.127574 0.841579
vn -0.179922 -0.170187 0.968847
vn -0.205573 -0.263680 0.942442
vn -0.146622 -0.325765 0.934012
vn -0.520163 -0.053006 0.852421
vn -0.261833 -0.366866 0.892666
vn -0.003571 0.128151 0.991748
vn -0.122492 0.208399 0.970343
vn -0.042390 0.088260 0.995178
vn 0.061035 0.017155 0.997988
vn -0.249529 0.249695 0.935622
vn -0.215247 0.212134 0.953215
vn -0.321940 0.159307 0.933226
vn -0.140507 -0.007019 0.990051
vn 0.011597 -0.155187 0.987793
vn 0.052889 -0.041719 0.997711
vn 0.062481 -0.062342 0.996097
vn -0.375989 -0.032880 0.926040
vn -0.293345 -0.135144 0.946406
vn -0.258766 -0.108402 0.959807
vn -0.168128 -0.223346 0.960130
vn -0.353526 0.034883 0.934751
vn -0.386266 0.047871 0.921144
vn -0.073724 -0.234626 0.969286
vn -0.104434 -0.210273 0.972015
vn -0.379635 0.208736 0.901281
vn 0.053599 -0.203038 0.977703
vn -0.179310 -0.103365 0.978347
vn -0.232270 0.011450 0.972584
vn -0.277840 -0.021424 0.960356
vn -0.331970 0.096316 0.938360
vn -0.395245 0.086886 0.914426
vn -0.364696 -0.100467 0.925657
vn -0.201239 -0.159886 0.966399
vn -0.518705 -0.134278 0.844343
vn -0.471037 -0.253219 0.844988
vn -0.451369 -0.201605 0.869228
vn -0.378143 -0.333622 0.863542
vn -0.507096 -0.060640 0.859737
vn -0.304483 -0.304849 0.902402
s 1
f 29/1/1 24/2/2 26/3/3
f 25/4/4 30/5/5 27/6/6
f 29/1/1 26/3/3 16/7/7
f 27/6/6 30/5/5 18/8/8
f 4/9/9 7/10/10 31/11/11
f 8/12/12 4/9/9 31/11/11
f 7/10/10 9/13/13 32/14/14
f 14/15/15 13/16/16 32/14/14
f 13/16/16 15/17/17 33/18/18
f 10/19/19 8/12/12 33/18/18
f 6/20/20 2/21/21 34/22/22
f 2/21/21 5/23/23 34/22/22
f 13/16/16 14/15/15 35/24/24
f 1/25/25 6/20/20 35/24/24
f 5/23/23 3/26/26 36/27/27
f 15/17/17 13/16/16 36/27/27
f 31/11/11 7/10/10 32/14/14
f 13/16/16 31/11/11 32/14/14
f 33/18/18 8/12/12 31/11/11
f 13/16/16 33/18/18 31/11/11
f 34/22/22 13/16/16 35/24/24
f 6/20/20 34/22/22 35/24/24
f 36/27/27 13/16/16 34/22/22
f 5/23/23 36/27/27 34/22/22
f 14/15/15 32/14/14 9/13/13
f 11/28/28 14/15/15 9/13/13
f 14/15/15 11/28/28 1/25/25
f 35/24/24 14/15/15 1/25/25
f 15/17/17 12/29/29 10/19/19
f 33/18/18 15/17/17 10/19/19
f 15/17/17 36/27/27 3/26/26
f 12/29/29 15/17/17 3/26/26
f 23/30/30 19/31/31 37/32/32
f 19/31/31 22/33/33 37/32/32
f 22/33/33 24/2/2 38/34/34
f 24/2/2 29/1/1 38/34/34
f 29/1/1 28/35/35 38/34/34
f 30/5/5 25/4/4 39/36/36
f 25/4/4 23/30/30 39/36/36
f 28/35/35 30/5/5 39/36/36
f 21/37/37 17/38/38 40/39/39
f 17/38/38 20/40/40 40/39/39
f 29/1/1 16/7/7 41/41/41
f 16/7/7 21/37/37 41/41/41
f 28/35/35 29/1/1 41/41/41
f 20/40/40 18/8/8 42/42/42
f 18/8/8 30/5/5 42/42/42
f 30/5/5 28/35/35 42/42/42
f 42/42/42 28/35/35 40/39/39
f 20/40/40 42/42/42 40/39/39
f 41/41/41 21/37/37 40/39/39
f 28/35/35 41/41/41 40/39/39
f 37/32/32 22/33/33 38/34/34
f 28/35/35 37/32/32 38/34/34
f 39/36/36 23/30/30 37/32/32
f 28/35/35 39/36/36 37/32/32
f 71/1/43 66/2/44 68/3/45
f 67/4/46 72/5/47 69/6/48
f 71/1/43 68/3/45 58/7/49
f 69/6/48 72/5/47 60/8/50
f 46/9/51 49/10/52 73/11/53
f 50/12/54 46/9/51 73/11/53
f 49/10/52 51/13/55 74/14/56
f 56/15/57 55/16/58 74/14/56
f 55/16/58 57/17/59 75/18/60
f 52/19/61 50/12/54 75/18/60
f 48/20/62 44/21/63 76/22/64
f 44/21/63 47/23/65 76/22/64
f 55/16/58 56/15/57 77/24/66
f 43/25/67 48/20/62 77/24/66
f 47/23/65 45/26/68 78/27/69
f 57/17/59 55/16/58 78/27/69
f 73/11/53 49/10/52 74/14/56
f 55/16/58 73/11/53 74/14/56
f 75/18/60 50/12/54 73/11/53
f 55/16/58 75/18/60 73/11/53
f 76/22/64 55/16/58 77/24/66
f 48/20/62 76/22/64 77/24/66
f 78/27/69 55/16/58 76/22/64
f 47/23/65 78/27/69 76/22/64
f 56/15/57 74/14/56 51/13/55
f 53/28/70 56/15/57 51/13/55
f 56/15/57 53/28/70 43/25/67
f 77/24/66 56/15/57 43/25/67
f 57/17/59 54/29/71 52/19/61
f 75/18/60 57/17/59 52/19/61
f 57/17/59 78/27/69 45/26/68
f 54/29/71 57/17/59 45/26/68
f 65/30/72 61/31/73 79/32/74
f 61/31/73 64/33/75 79/32/74
f 64/33/75 66/2/44 80/34/76
f 66/2/44 71/1/43 80/34/76
f 71/1/43 70/35/77 80/34/76
f 72/5/47 67/4/46 81/36/78
f 67/4/46 65/30/72 81/36/78
f 70/35/77 72/5/47 81/36/78
f 63/37/79 59/38/80 82/39/81
f 59/38/80 62/40/82 82/39/81
f 71/1/43 58/7/49 83/41/83
f 58/7/49 63/37/79 83/41/83
f 70/35/77 71/1/43 83/41/83
f 62/40/82 60/8/50 84/42/84
f 60/8/50 72/5/47 84/42/84
f 72/5/47 70/35/77 84/42/84
f 84/42/84 70/35/77 82/39/81
f 62/40/82 84/42/84 82/39/81
f 83/41/83 63/37/79 82/39/81
f 70/35/77 83/41/83 82/39/81
f 79/32/74 64/33/75 80/34/76
f 70/35/77 79/32/74 80/34/76
f 81/36/78 65/30/72 79/32/74
f 70/35/77 81/36/78 79/32/74
