# Blender v2.70 (sub 0) OBJ File: 'tda_miku_append.blend'
# www.blender.org
o face02_Tda式ミク・アペンド.017
v -0.017378 0.405116 0.047785
v -0.021203 0.406348 0.047682
v -0.014066 0.402987 0.048045
v -0.025776 0.407153 0.047010
v -0.010503 0.399817 0.048086
v -0.030107 0.407029 0.045601
v -0.008010 0.395286 0.047757
v -0.033162 0.406362 0.043761
v -0.007479 0.389974 0.047451
v -0.036176 0.404912 0.041733
v -0.008788 0.384821 0.046874
v -0.038793 0.401500 0.040320
v -0.012153 0.381462 0.046658
v -0.039642 0.396744 0.039297
v -0.015847 0.380190 0.046201
v -0.039133 0.392106 0.039097
v -0.020801 0.379467 0.045149
v -0.038058 0.386940 0.039511
v -0.025293 0.379281 0.044239
v -0.036436 0.383343 0.040336
v -0.029392 0.379671 0.043073
v -0.033092 0.380772 0.041792
v -0.025147 0.404568 0.046209
v -0.026942 0.404243 0.045745
v -0.028708 0.403389 0.045164
v -0.030048 0.402045 0.044530
v -0.031001 0.400325 0.043865
v -0.031605 0.398226 0.043272
v -0.031788 0.395861 0.042718
v -0.031633 0.393420 0.042371
v -0.031318 0.390985 0.042230
v -0.030637 0.388680 0.042305
v -0.029676 0.386621 0.042544
v -0.028455 0.384916 0.042870
v -0.027037 0.383646 0.043289
v -0.025493 0.382879 0.043699
v -0.023901 0.382655 0.044089
v -0.022339 0.382980 0.044530
v -0.020888 0.383842 0.044910
v -0.019618 0.385197 0.045199
v -0.018594 0.386974 0.045464
v -0.017865 0.389090 0.045615
v -0.017470 0.391430 0.045751
v -0.017429 0.393876 0.045982
v -0.017625 0.396305 0.046239
v -0.018157 0.398597 0.046526
v -0.019001 0.400643 0.046688
v -0.020200 0.402333 0.046782
v -0.021746 0.403589 0.046731
v -0.023445 0.404346 0.046548
v 0.017378 0.405116 0.047785
v 0.021203 0.406348 0.047682
v 0.014066 0.402987 0.048045
v 0.025776 0.407153 0.047010
v 0.010503 0.399817 0.048086
v 0.030107 0.407029 0.045601
v 0.008010 0.395286 0.047757
v 0.033162 0.406362 0.043761
v 0.007479 0.389974 0.047451
v 0.036176 0.404912 0.041733
v 0.008788 0.384821 0.046874
v 0.038793 0.401500 0.040320
v 0.012153 0.381462 0.046658
v 0.039642 0.396744 0.039297
v 0.015847 0.380190 0.046201
v 0.039133 0.392106 0.039097
v 0.020801 0.379467 0.045149
v 0.038058 0.386940 0.039511
v 0.025293 0.379281 0.044239
v 0.036436 0.383343 0.040336
v 0.029392 0.379671 0.043073
v 0.033092 0.380772 0.041792
v 0.025147 0.404568 0.046209
v 0.026942 0.404243 0.045745
v 0.028708 0.403389 0.045164
v 0.030048 0.402045 0.044530
v 0.031001 0.400325 0.043865
v 0.031605 0.398226 0.043272
v 0.031788 0.395861 0.042718
v 0.031634 0.393419 0.042371
v 0.031318 0.390985 0.042230
v 0.030638 0.388680 0.042305
v 0.029676 0.386621 0.042543
v 0.028455 0.384915 0.042870
v 0.027037 0.383646 0.043289
v 0.025494 0.382879 0.043699
v 0.023901 0.382655 0.044089
v 0.022339 0.382980 0.044530
v 0.020888 0.383841 0.044910
v 0.019618 0.385197 0.045199
v 0.018594 0.386974 0.045464
v 0.017865 0.389090 0.045615
v 0.017470 0.391430 0.045751
v 0.017429 0.393876 0.045982
v 0.017625 0.396305 0.046239
v 0.018157 0.398597 0.046526
v 0.019001 0.400643 0.046688
v 0.020200 0.402333 0.046782
v 0.021746 0.403589 0.046731
v 0.023445 0.404346 0.046548
vt 0.178660 0.631540
vt 0.000000 0.000000
vt 0.188060 0.635060
vt 0.905620 0.983060
vt 0.953820 0.950900
vt 0.969760 0.924710
vt 0.931150 0.970730
vt 0.199840 0.637010
vt 0.852920 0.983140
vt 0.211740 0.636550
vt 0.207030 0.553720
vt 0.226890 0.567410
vt 0.809920 0.691390
vt 0.926720 0.671750
vt 0.827380 0.970910
vt 0.986600 0.784420
vt 0.144330 0.600990
vt 0.148740 0.567990
vt 0.986810 0.858280
vt 0.152660 0.616020
vt 0.226550 0.628720
vt 0.164990 0.624570
vt 0.981080 0.893280
vt 0.788790 0.924820
vt 0.232030 0.622560
vt 0.777340 0.893260
vt 0.989490 0.821350
vt 0.238130 0.612030
vt 0.771390 0.858080
vt 0.768540 0.821140
vt 0.978330 0.749320
vt 0.141760 0.586580
vt 0.239860 0.598360
vt 0.771190 0.784200
vt 0.235830 0.580110
vt 0.792480 0.717670
vt 0.965270 0.717810
vt 0.779380 0.749120
vt 0.143390 0.577370
vt 0.947720 0.691520
vt 0.219260 0.633710
vt 0.830800 0.671650
vt 0.804760 0.951160
vt 0.854130 0.659400
vt 0.158250 0.559380
vt 0.903320 0.659440
vt 0.879520 0.987260
vt 0.174850 0.552010
vt 0.191270 0.550620
vt 0.878710 0.655260
vt 0.970410 0.923240
vt 0.875800 0.655290
vt 0.828090 0.672610
vt 0.954900 0.949860
vt 0.907310 0.982670
vt 0.986640 0.856210
vt 0.854620 0.983510
vt 0.790350 0.719340
vt 0.807440 0.692740
vt 0.981310 0.891480
vt 0.805870 0.952200
vt 0.923990 0.670850
vt 0.900450 0.659000
vt 0.789470 0.926290
vt 0.988850 0.819220
vt 0.985560 0.782340
vt 0.777600 0.895070
vt 0.976760 0.747400
vt 0.771260 0.860170
vt 0.963110 0.716190
vt 0.767940 0.823290
vt 0.216990 0.558530
vt 0.770180 0.786310
vt 0.777840 0.751080
vt 0.880790 0.987250
vt 0.932640 0.969990
vt 0.945210 0.690210
vt 0.828870 0.971630
vt 0.851270 0.659890
vn 0.191730 0.312236 -0.930456
vn 0.226506 0.338295 -0.913374
vn 0.171183 0.175627 -0.969459
vn 0.224259 0.277881 -0.934072
vn 0.289661 0.281562 -0.914778
vn 0.218409 0.198514 -0.955453
vn 0.451175 0.275164 -0.848956
vn 0.301505 -0.090563 -0.949154
vn 0.237620 -0.015374 -0.971237
vn 0.250959 0.270981 -0.929295
vn 0.352320 0.088019 -0.931731
vn 0.171510 0.089794 -0.981082
vn 0.139950 -0.050807 -0.988854
vn 0.172244 0.161693 -0.971693
vn 0.420083 0.052825 -0.905947
vn 0.192329 0.156102 -0.968835
vn 0.170858 0.164398 -0.971484
vn 0.426711 0.129751 -0.895032
vn 0.422725 0.117798 -0.898570
vn 0.169206 0.177848 -0.969402
vn 0.409687 0.178053 -0.894681
vn 0.167025 0.117081 -0.978976
vn 0.177837 0.074352 -0.981247
vn 0.372606 0.153752 -0.915164
vn 0.103878 0.242180 -0.964655
vn 0.405812 0.083887 -0.910099
vn 0.382814 0.102755 -0.918093
vn 0.171708 0.028246 -0.984743
vn 0.168143 0.067470 -0.983451
vn 0.337213 0.069125 -0.938887
vn 0.344751 -0.081229 -0.935173
vn 0.146626 0.020084 -0.988988
vn 0.297808 0.028384 -0.954204
vn 0.128069 -0.064865 -0.989642
vn 0.238857 -0.014777 -0.970942
vn 0.185415 0.170064 -0.967832
vn 0.253891 -0.002317 -0.967230
vn 0.495732 0.162743 -0.853091
vn 0.218907 -0.076719 -0.972725
vn 0.401867 0.128225 -0.906676
vn 0.219957 -0.077355 -0.972438
vn 0.214263 -0.049142 -0.975539
vn 0.362129 -0.050135 -0.930779
vn 0.278630 -0.046973 -0.959249
vn 0.179319 0.330886 -0.926477
vn 0.372492 0.003045 -0.928030
vn 0.202017 -0.126647 -0.971159
vn 0.217819 -0.132977 -0.966888
vn 0.260064 -0.129125 -0.956919
vn 0.280732 -0.045954 -0.958685
vn -0.420083 0.052827 -0.905947
vn -0.217829 -0.132994 -0.966883
vn -0.214264 -0.049153 -0.975538
vn -0.352329 0.088025 -0.931727
vn -0.179319 0.330897 -0.926473
vn -0.289660 0.281567 -0.914777
vn -0.401862 0.128224 -0.906678
vn -0.495730 0.162742 -0.853093
vn -0.191733 0.312245 -0.930453
vn -0.405810 0.083887 -0.910099
vn -0.224260 0.277886 -0.934070
vn -0.169208 0.177850 -0.969401
vn -0.253895 -0.002321 -0.967229
vn -0.426711 0.129753 -0.895032
vn -0.103879 0.242194 -0.964651
vn -0.171198 0.175634 -0.969456
vn -0.409685 0.178058 -0.894681
vn -0.218902 -0.076729 -0.972725
vn -0.185420 0.170070 -0.967830
vn -0.219952 -0.077366 -0.972438
vn -0.192334 0.156104 -0.968834
vn -0.422725 0.117798 -0.898569
vn -0.382805 0.102753 -0.918097
vn -0.172250 0.161695 -0.971692
vn -0.337211 0.069128 -0.938888
vn -0.170863 0.164401 -0.971482
vn -0.362126 -0.050138 -0.930780
vn -0.167032 0.117084 -0.978975
vn -0.297801 0.028382 -0.954206
vn -0.171513 0.089793 -0.981081
vn -0.344749 -0.081235 -0.935173
vn -0.372490 0.003045 -0.928031
vn -0.171720 0.028246 -0.984741
vn -0.168147 0.067469 -0.983450
vn -0.301500 -0.090571 -0.949155
vn -0.146627 0.020082 -0.988988
vn -0.226504 0.338307 -0.913370
vn -0.218406 0.198523 -0.955452
vn -0.177841 0.074352 -0.981246
vn -0.260060 -0.129139 -0.956918
vn -0.238855 -0.014781 -0.970943
vn -0.250963 0.270989 -0.929291
vn -0.237625 -0.015379 -0.971235
vn -0.278637 -0.046982 -0.959247
vn -0.372600 0.153747 -0.915167
vn -0.280736 -0.045964 -0.958684
vn -0.202014 -0.126665 -0.971157
vn -0.128073 -0.064870 -0.989641
vn -0.139953 -0.050815 -0.988853
vn -0.451175 0.275159 -0.848957
s off
f 2/1/1 50/2/1 4/3/1
f 50/4/2 23/2/2 4/3/2
f 48/5/3 1/1/3 47/6/3
f 49/7/4 50/2/4 2/1/4
f 24/2/5 6/8/5 4/3/5
f 6/2/6 24/9/6 25/2/6
f 8/10/7 6/2/7 25/2/7
f 21/11/8 22/12/8 34/13/8
f 15/2/9 39/14/9 40/2/9
f 49/7/10 2/1/10 48/5/10
f 8/2/11 25/15/11 26/2/11
f 43/16/12 44/2/12 7/17/12
f 41/2/13 13/18/13 15/2/13
f 45/19/14 46/2/14 5/20/14
f 12/21/15 10/2/15 27/2/15
f 47/6/16 3/22/16 46/23/16
f 7/2/17 45/19/17 5/20/17
f 12/2/18 27/24/18 28/2/18
f 14/25/19 12/2/19 28/2/19
f 3/22/20 5/2/20 46/23/20
f 14/2/21 28/26/21 29/2/21
f 44/27/22 45/2/22 7/2/22
f 9/2/23 43/16/23 7/17/23
f 30/2/24 16/28/24 29/29/24
f 2/1/25 1/1/25 48/5/25
f 16/28/26 14/2/26 29/29/26
f 16/2/27 30/30/27 31/2/27
f 42/31/28 43/2/28 9/2/28
f 42/2/29 9/32/29 11/2/29
f 32/2/30 18/33/30 31/34/30
f 22/12/31 20/35/31 33/36/31
f 41/37/32 42/2/32 11/2/32
f 33/36/33 20/35/33 32/38/33
f 11/39/34 13/2/34 41/2/34
f 34/13/35 22/12/35 33/36/35
f 1/1/36 3/22/36 47/6/36
f 40/40/37 41/2/37 15/2/37
f 10/41/38 8/2/38 27/2/38
f 35/42/39 21/11/39 34/13/39
f 8/2/40 26/43/40 27/2/40
f 36/44/41 21/11/41 35/42/41
f 39/2/42 15/45/42 17/2/42
f 20/35/43 18/2/43 32/38/43
f 38/46/44 39/2/44 17/2/44
f 23/47/45 24/2/45 4/3/45
f 18/33/46 16/2/46 31/34/46
f 37/2/47 17/48/47 19/49/47
f 36/44/48 37/2/48 19/49/48
f 21/11/49 36/44/49 19/49/49
f 37/50/50 38/2/50 17/2/50
f 62/28/51 77/51/51 60/25/51
f 69/2/52 87/52/52 86/2/52
f 89/53/53 67/48/53 65/45/53
f 76/54/54 75/2/54 58/2/54
f 74/55/55 73/2/55 54/2/55
f 54/10/56 56/2/56 74/2/56
f 77/51/57 76/54/57 58/21/57
f 60/25/58 77/51/58 58/21/58
f 52/8/59 54/2/59 100/2/59
f 64/33/60 66/2/60 79/56/60
f 100/57/61 99/2/61 52/2/61
f 96/2/62 55/20/62 53/2/62
f 91/58/63 90/59/63 65/45/63
f 77/51/64 62/28/64 78/60/64
f 51/3/65 52/2/65 98/2/65
f 98/61/66 97/2/66 51/2/66
f 78/60/67 64/33/67 79/56/67
f 71/2/68 85/62/68 84/2/68
f 97/2/69 53/22/69 51/2/69
f 71/2/70 86/63/70 85/2/70
f 97/64/71 96/2/71 53/2/71
f 62/28/72 64/33/72 78/60/72
f 80/65/73 66/35/73 81/66/73
f 55/2/74 96/67/74 95/2/74
f 82/68/75 81/2/75 68/2/75
f 57/17/76 55/2/76 95/2/76
f 82/2/77 68/12/77 70/2/77
f 57/2/78 95/69/78 94/2/78
f 83/70/79 82/2/79 70/2/79
f 57/2/80 94/71/80 93/2/80
f 70/72/81 72/2/81 83/2/81
f 66/35/82 68/2/82 81/66/82
f 92/2/83 59/32/83 93/73/83
f 61/39/84 59/2/84 92/74/84
f 72/72/85 71/2/85 84/2/85
f 91/58/86 61/39/86 92/74/86
f 54/2/87 73/75/87 100/2/87
f 56/2/88 75/76/88 74/2/88
f 59/32/89 57/2/89 93/73/89
f 71/11/90 69/2/90 86/2/90
f 72/2/91 84/77/91 83/2/91
f 52/2/92 99/78/92 98/2/92
f 90/59/93 89/53/93 65/45/93
f 88/2/94 67/2/94 89/53/94
f 80/65/95 79/2/95 66/35/95
f 88/79/96 87/2/96 67/2/96
f 87/2/97 69/49/97 67/2/97
f 61/39/98 91/58/98 63/18/98
f 63/18/99 91/58/99 65/45/99
f 75/2/100 56/41/100 58/2/100
