# Blender v2.70 (sub 0) OBJ File: 'unity_chan.blend'
# www.blender.org
o button
v 0.002404 0.015408 0.066827
v 0.000000 0.014841 0.066827
v 0.000000 0.014841 0.065333
v 0.002404 0.015408 0.065333
v 0.004396 0.016996 0.066827
v 0.004396 0.016996 0.065333
v 0.005501 0.019292 0.066827
v 0.005501 0.019292 0.065333
v 0.005501 0.021838 0.066827
v 0.005501 0.021838 0.065333
v 0.004396 0.024133 0.066827
v 0.004396 0.024133 0.065333
v 0.002404 0.025722 0.066827
v 0.002404 0.025722 0.065333
v 0.000000 0.026288 0.066827
v 0.000000 0.026288 0.065333
v 0.000000 0.020565 0.066827
v -0.002404 0.015408 0.066827
v -0.002404 0.015408 0.065333
v -0.004396 0.016996 0.065333
v -0.004396 0.016996 0.066827
v -0.005501 0.019292 0.065333
v -0.005501 0.019292 0.066827
v -0.005501 0.021838 0.066827
v -0.005501 0.021838 0.065333
v -0.004396 0.024133 0.065333
v -0.004396 0.024133 0.066827
v -0.002404 0.025722 0.065333
v -0.002404 0.025722 0.066827
v 0.002264 0.243889 0.052303
v -0.002264 0.243889 0.052303
v -0.002039 0.240078 0.055623
v 0.002039 0.240078 0.055623
v 0.002264 0.242040 0.050325
v 0.002039 0.238031 0.053347
v -0.002264 0.242040 0.050325
v -0.002039 0.238031 0.053347
v 0.000790 0.244324 0.053411
v -0.000790 0.244324 0.053411
v -0.000712 0.241749 0.055643
v 0.000712 0.241749 0.055643
v 0.000790 0.243264 0.052407
v 0.000712 0.240694 0.054645
v -0.000790 0.243264 0.052407
v -0.000712 0.240694 0.054645
v 0.001547 0.240382 0.055921
v 0.000859 0.240256 0.056630
v 0.000859 0.239959 0.056271
v 0.001547 0.240680 0.056280
v 0.000565 0.240428 0.055884
v 0.001019 0.241003 0.056012
v 0.001019 0.240707 0.055653
v 0.000565 0.240724 0.056242
v 0.001929 0.240994 0.055415
v 0.001929 0.241290 0.055774
v 0.001270 0.241109 0.055320
v 0.001270 0.241406 0.055678
v 0.001929 0.241968 0.055213
v 0.001929 0.241672 0.054854
v 0.001270 0.241556 0.054950
v 0.001270 0.241853 0.055309
v 0.001547 0.242580 0.054708
v 0.001547 0.242283 0.054349
v 0.001019 0.242256 0.054975
v 0.001019 0.241958 0.054617
v 0.000859 0.243003 0.054358
v 0.000859 0.242705 0.053999
v 0.000565 0.242237 0.054387
v 0.000565 0.242534 0.054745
v 0.000000 0.243154 0.054233
v 0.000000 0.242857 0.053874
v 0.000000 0.242633 0.054663
v 0.000000 0.242336 0.054304
v -0.000858 0.242705 0.053999
v -0.000858 0.243003 0.054358
v -0.000565 0.242534 0.054745
v -0.000565 0.242237 0.054387
v -0.001546 0.242283 0.054349
v -0.001546 0.242580 0.054708
v -0.001018 0.242256 0.054975
v -0.001018 0.241958 0.054617
v -0.001928 0.241672 0.054854
v -0.001928 0.241968 0.055213
v -0.001270 0.241556 0.054950
v -0.001270 0.241853 0.055309
v -0.001928 0.240994 0.055415
v -0.001928 0.241290 0.055774
v -0.001270 0.241406 0.055678
v -0.001270 0.241109 0.055320
v -0.001546 0.240382 0.055921
v -0.001546 0.240680 0.056280
v -0.001018 0.241003 0.056012
v -0.001018 0.240707 0.055653
v -0.000858 0.239959 0.056271
v -0.000858 0.240256 0.056630
v -0.000565 0.240428 0.055884
v -0.000565 0.240724 0.056242
v 0.000000 0.239889 0.057929
v 0.005218 0.231914 0.064528
v 0.006173 0.237850 0.059615
v 0.000000 0.228977 0.066958
v 0.000000 0.238663 0.056448
v 0.005218 0.230688 0.063047
v 0.000000 0.227751 0.065477
v 0.006173 0.236624 0.058134
v -0.005218 0.231914 0.064528
v -0.006173 0.237850 0.059615
v -0.005218 0.230688 0.063047
v -0.006173 0.236624 0.058134
v 0.000000 0.227883 0.067864
v -0.005560 0.230385 0.065794
v 0.000000 0.226656 0.066384
v -0.005561 0.229159 0.064313
v -0.008041 0.238192 0.059332
v -0.007571 0.232962 0.063661
v -0.008041 0.236966 0.057851
v -0.007571 0.231736 0.062180
v 0.005560 0.230385 0.065794
v 0.005561 0.229159 0.064313
v 0.008041 0.238192 0.059332
v 0.007571 0.232962 0.063661
v 0.008041 0.236966 0.057851
v 0.007571 0.231736 0.062180
v -0.002010 0.240897 0.057095
v -0.002010 0.239671 0.055614
v 0.002010 0.240897 0.057095
v 0.002010 0.239671 0.055614
v -0.000413 0.238767 0.057861
v -0.000413 0.238470 0.057502
v -0.000120 0.239236 0.057473
v -0.000120 0.238939 0.057114
v 0.000120 0.238939 0.057115
v 0.000120 0.239235 0.057474
v 0.000414 0.238766 0.057861
v 0.000414 0.238470 0.057502
vt 0.505140 0.882860
vt 0.500750 0.881790
vt 0.500750 0.877410
vt 0.507010 0.879170
vt 0.508740 0.885790
vt 0.511930 0.883290
vt 0.510720 0.889950
vt 0.514640 0.889070
vt 0.510720 0.894560
vt 0.514640 0.895440
vt 0.508740 0.898730
vt 0.511930 0.901220
vt 0.505140 0.901650
vt 0.507010 0.905350
vt 0.500750 0.902730
vt 0.500750 0.907110
vt 0.500750 0.892260
vt 0.496360 0.882860
vt 0.494500 0.879170
vt 0.489580 0.883290
vt 0.492770 0.885790
vt 0.486870 0.889070
vt 0.490790 0.889950
vt 0.490790 0.894560
vt 0.486870 0.895440
vt 0.489580 0.901220
vt 0.492770 0.898730
vt 0.494500 0.905350
vt 0.496360 0.901650
vt 0.420540 0.959970
vt 0.405560 0.959970
vt 0.405560 0.942680
vt 0.420540 0.942680
vt 0.424510 0.959970
vt 0.424510 0.942680
vt 0.401590 0.959970
vt 0.401590 0.942680
vt 0.420540 0.963760
vt 0.405560 0.963760
vt 0.405560 0.938270
vt 0.420540 0.938290
vt 0.414530 0.985290
vt 0.409220 0.985290
vt 0.409220 0.973920
vt 0.414530 0.973920
vt 0.419360 0.985290
vt 0.419360 0.973920
vt 0.404390 0.985290
vt 0.404390 0.973920
vt 0.414530 0.990760
vt 0.409220 0.990770
vt 0.409220 0.969080
vt 0.414530 0.969070
vt 0.384990 0.940230
vt 0.381280 0.935810
vt 0.384990 0.935810
vt 0.381280 0.940230
vt 0.371810 0.935810
vt 0.376110 0.940230
vt 0.371810 0.940230
vt 0.376110 0.935810
vt 0.384990 0.944770
vt 0.381280 0.944770
vt 0.371810 0.944770
vt 0.376110 0.944770
vt 0.381280 0.949210
vt 0.384990 0.949210
vt 0.371810 0.949210
vt 0.376110 0.949210
vt 0.381280 0.953570
vt 0.384990 0.953570
vt 0.376110 0.953570
vt 0.371810 0.953570
vt 0.381280 0.957850
vt 0.384990 0.957850
vt 0.371810 0.957850
vt 0.376110 0.957850
vt 0.381280 0.962080
vt 0.384990 0.962080
vt 0.376110 0.962080
vt 0.371810 0.962080
vt 0.384990 0.966320
vt 0.381280 0.966320
vt 0.376110 0.966320
vt 0.371810 0.966320
vt 0.384990 0.970600
vt 0.381280 0.970600
vt 0.376110 0.970600
vt 0.371810 0.970600
vt 0.384990 0.974960
vt 0.381280 0.974960
vt 0.371810 0.974960
vt 0.376110 0.974960
vt 0.384990 0.979380
vt 0.381280 0.979380
vt 0.376110 0.979380
vt 0.371810 0.979380
vt 0.384990 0.983900
vt 0.381280 0.983900
vt 0.376110 0.983900
vt 0.371810 0.983900
vt 0.384990 0.988330
vt 0.381280 0.988330
vt 0.371810 0.988330
vt 0.376110 0.988330
vt 0.502400 0.976380
vt 0.518640 0.944150
vt 0.521610 0.968140
vt 0.502400 0.932280
vt 0.502400 0.976390
vt 0.518640 0.944160
vt 0.502400 0.932290
vt 0.521610 0.968150
vt 0.486150 0.944150
vt 0.483180 0.968140
vt 0.486150 0.944160
vt 0.483180 0.968150
vt 0.502400 0.927860
vt 0.485080 0.937970
vt 0.502400 0.927870
vt 0.485080 0.937980
vt 0.484240 0.937910
vt 0.502260 0.925030
vt 0.502270 0.927500
vt 0.482460 0.935930
vt 0.482050 0.942790
vt 0.485380 0.944210
vt 0.477360 0.969520
vt 0.478830 0.948390
vt 0.477360 0.969530
vt 0.478830 0.948400
vt 0.477750 0.948580
vt 0.476310 0.970160
vt 0.474930 0.970560
vt 0.476480 0.947730
vt 0.519710 0.937970
vt 0.519710 0.937980
vt 0.520390 0.937730
vt 0.522630 0.936050
vt 0.522910 0.942770
vt 0.519300 0.944040
vt 0.527430 0.969520
vt 0.525970 0.948390
vt 0.527430 0.969530
vt 0.525970 0.948400
vt 0.529910 0.970420
vt 0.526970 0.948330
vt 0.528830 0.947560
vt 0.528580 0.969900
vt 0.496140 0.980450
vt 0.496140 0.980460
vt 0.495960 0.981210
vt 0.495770 0.983320
vt 0.502480 0.977020
vt 0.502510 0.980900
vt 0.508650 0.980450
vt 0.508650 0.980460
vt 0.509030 0.981150
vt 0.508910 0.982990
vn 0.327982 -0.674947 0.660939
vn 0.000000 -0.752190 0.658925
vn 0.000001 -1.000000 0.000000
vn 0.437092 -0.899417 0.000000
vn 0.587146 -0.468215 0.660298
vn 0.781829 -0.623493 0.000000
vn 0.732170 -0.167150 0.660268
vn 0.974918 -0.222565 0.000000
vn 0.732170 0.167150 0.660268
vn 0.974916 0.222571 0.000000
vn 0.587146 0.468215 0.660298
vn 0.781832 0.623489 0.000000
vn 0.328013 0.674917 0.660939
vn 0.437101 0.899413 0.000000
vn 0.000000 0.752190 0.658925
vn 0.000001 1.000000 0.000000
vn 0.000000 0.000000 0.999969
vn -0.327982 -0.674947 0.660939
vn -0.437093 -0.899417 0.000000
vn -0.781829 -0.623492 0.000000
vn -0.587146 -0.468215 0.660298
vn -0.974917 -0.222567 0.000000
vn -0.732170 -0.167150 0.660268
vn -0.732170 0.167150 0.660268
vn -0.974917 0.222570 0.000000
vn -0.781831 0.623490 0.000000
vn -0.587146 0.468215 0.660298
vn -0.437102 0.899412 0.000000
vn -0.328013 0.674917 0.660939
vn 0.589190 0.806543 0.047914
vn -0.589190 0.806543 0.047914
vn -0.563829 -0.056673 0.823908
vn 0.563829 -0.056673 0.823908
vn 0.745784 0.486486 -0.455124
vn 0.671260 -0.551084 0.495698
vn -0.745784 0.486491 -0.455119
vn -0.671260 -0.551082 0.495701
vn 0.579302 0.814814 0.021271
vn -0.579302 0.814814 0.021271
vn -0.575152 -0.021302 0.817743
vn 0.575152 -0.021302 0.817743
vn 0.735977 0.465748 -0.491341
vn 0.676428 -0.506129 0.535050
vn -0.735978 0.465744 -0.491345
vn -0.676428 -0.506129 0.535050
vn 0.782032 -0.479690 0.397898
vn 0.519364 0.251045 0.816828
vn 0.650742 -0.723091 -0.231677
vn 0.587176 0.060945 0.807123
vn -0.824963 0.259427 -0.502130
vn -0.507431 0.796594 0.328440
vn -0.781783 0.480584 -0.397308
vn -0.650166 0.723319 0.232459
vn 0.974944 -0.171353 0.141856
vn 0.732414 0.291849 0.615101
vn -0.974942 0.171287 -0.141946
vn -0.632954 0.595721 0.494400
vn 0.732383 0.549394 0.402173
vn 0.974940 0.171446 -0.141771
vn -0.974981 -0.171253 0.141721
vn -0.632557 0.374004 0.678182
vn 0.587054 0.781701 0.210395
vn 0.781820 0.480424 -0.397429
vn -0.507523 0.173467 0.843959
vn -0.781730 -0.480170 0.397913
vn 0.325846 0.942228 0.077303
vn 0.433801 0.693733 -0.574936
vn -0.433453 -0.694120 0.574732
vn -0.281137 0.033998 0.959044
vn -0.000061 0.999542 0.029786
vn -0.000085 0.769954 -0.638099
vn 0.000000 -0.015351 0.999878
vn -0.000002 -0.770657 0.637250
vn -0.433874 0.693702 -0.574919
vn -0.325877 0.942228 0.077334
vn 0.281289 0.034181 0.958983
vn 0.433762 -0.694004 0.574638
vn -0.781820 0.480424 -0.397429
vn -0.587054 0.781701 0.210395
vn 0.507645 0.173132 0.843959
vn 0.781628 -0.480261 0.398003
vn -0.974940 0.171446 -0.141771
vn -0.732383 0.549394 0.402173
vn 0.974870 -0.171626 0.142034
vn 0.632344 0.373882 0.678457
vn -0.974945 -0.171354 0.141844
vn -0.732414 0.291849 0.615101
vn 0.632740 0.596026 0.494339
vn 0.974831 0.171662 -0.142254
vn -0.782032 -0.479691 0.397898
vn -0.587176 0.060945 0.807123
vn 0.507553 0.796655 0.328135
vn 0.781688 0.480677 -0.397385
vn -0.650682 -0.723113 -0.231776
vn -0.519333 0.251015 0.816858
vn 0.825163 0.259439 -0.501794
vn 0.650258 0.723167 0.232673
vn 0.000000 0.946165 0.323649
vn 0.460860 0.382611 0.800714
vn 0.000031 0.637532 0.770409
vn 0.000000 0.637745 0.770226
vn 0.000000 -0.140996 -0.989990
vn 0.460952 -0.714927 -0.525681
vn 0.000000 -0.637776 -0.770196
vn -0.000031 -0.637501 -0.770409
vn -0.460860 0.382611 0.800714
vn -0.000031 0.637532 0.770409
vn -0.460952 -0.714927 -0.525681
vn 0.000031 -0.637501 -0.770409
vn 0.000000 -0.222053 0.975005
vn -0.726188 0.121586 0.676626
vn 0.000000 -0.999298 0.036653
vn -0.726493 -0.641835 -0.245399
vn -0.703330 0.673055 0.228645
vn -0.668813 0.070742 0.740013
vn -0.703299 -0.098880 -0.703970
vn -0.668966 -0.713675 -0.207678
vn 0.726188 0.121586 0.676626
vn 0.726493 -0.641835 -0.245399
vn 0.703330 0.673055 0.228645
vn 0.668813 0.070742 0.740013
vn 0.703299 -0.098880 -0.703970
vn 0.668966 -0.713675 -0.207678
vn 0.019745 0.998993 -0.040223
vn 0.020020 0.226325 -0.973815
vn -0.019745 0.998993 -0.040223
vn -0.020020 0.226295 -0.973846
vn -0.093081 -0.295602 0.950743
vn -0.093051 -0.989380 0.111576
vn 0.764214 0.341502 0.547075
vn 0.763909 -0.473098 -0.438826
vn -0.763970 -0.473312 -0.438520
vn -0.764214 0.341197 0.547288
vn 0.093478 -0.295541 0.950713
vn 0.093448 -0.989349 0.111515
s 1
f 1/1/1 2/2/2 3/3/3
f 1/1/1 3/3/3 4/4/4
f 5/5/5 1/1/1 4/4/4
f 5/5/5 4/4/4 6/6/6
f 7/7/7 5/5/5 6/6/6
f 7/7/7 6/6/6 8/8/8
f 9/9/9 7/7/7 8/8/8
f 9/9/9 8/8/8 10/10/10
f 11/11/11 9/9/9 10/10/10
f 11/11/11 10/10/10 12/12/12
f 13/13/13 11/11/11 12/12/12
f 13/13/13 12/12/12 14/14/14
f 15/15/15 13/13/13 14/14/14
f 15/15/15 14/14/14 16/16/16
f 2/2/2 1/1/1 17/17/17
f 1/1/1 5/5/5 17/17/17
f 5/5/5 7/7/7 17/17/17
f 7/7/7 9/9/9 17/17/17
f 9/9/9 11/11/11 17/17/17
f 11/11/11 13/13/13 17/17/17
f 13/13/13 15/15/15 17/17/17
f 18/18/18 19/19/19 2/2/2
f 2/2/2 19/19/19 3/3/3
f 20/20/20 18/18/18 21/21/21
f 18/18/18 20/20/20 19/19/19
f 22/22/22 21/21/21 23/23/23
f 21/21/21 22/22/22 20/20/20
f 24/24/24 25/25/25 23/23/23
f 23/23/23 25/25/25 22/22/22
f 26/26/26 24/24/24 27/27/27
f 24/24/24 26/26/26 25/25/25
f 28/28/28 27/27/27 29/29/29
f 27/27/27 28/28/28 26/26/26
f 15/15/15 16/16/16 29/29/29
f 29/29/29 16/16/16 28/28/28
f 17/17/17 18/18/18 2/2/2
f 17/17/17 21/21/21 18/18/18
f 17/17/17 23/23/23 21/21/21
f 17/17/17 24/24/24 23/23/23
f 17/17/17 27/27/27 24/24/24
f 17/17/17 29/29/29 27/27/27
f 17/17/17 15/15/15 29/29/29
f 30/30/30 31/31/31 32/32/32
f 30/30/30 32/32/32 33/33/33
f 33/33/33 34/34/34 30/30/30
f 34/34/34 33/33/33 35/35/35
f 36/36/36 32/32/32 31/31/31
f 32/32/32 36/36/36 37/37/37
f 31/31/31 30/30/30 34/38/34
f 31/31/31 34/38/34 36/39/36
f 33/33/33 32/32/32 37/40/37
f 33/33/33 37/40/37 35/41/35
f 38/42/38 39/43/39 40/44/40
f 38/42/38 40/44/40 41/45/41
f 41/45/41 42/46/42 38/42/38
f 42/46/42 41/45/41 43/47/43
f 44/48/44 40/44/40 39/43/39
f 40/44/40 44/48/44 45/49/45
f 42/50/42 44/51/44 39/43/39
f 42/50/42 39/43/39 38/42/38
f 41/45/41 40/44/40 45/52/45
f 41/45/41 45/52/45 43/53/43
f 46/54/46 47/55/47 48/56/48
f 47/55/47 46/54/46 49/57/49
f 50/58/50 51/59/51 52/60/52
f 51/59/51 50/58/50 53/61/53
f 54/62/54 49/57/49 46/54/46
f 49/57/49 54/62/54 55/63/55
f 56/64/56 52/60/52 51/59/51
f 56/64/56 51/59/51 57/65/57
f 58/66/58 54/62/54 59/67/59
f 54/62/54 58/66/58 55/63/55
f 60/68/60 56/64/56 57/65/57
f 60/68/60 57/65/57 61/69/61
f 62/70/62 59/67/59 63/71/63
f 59/67/59 62/70/62 58/66/58
f 60/68/60 64/72/64 65/73/65
f 64/72/64 60/68/60 61/69/61
f 66/74/66 63/71/63 67/75/67
f 63/71/63 66/74/66 62/70/62
f 65/73/65 64/72/64 68/76/68
f 68/76/68 64/72/64 69/77/69
f 70/78/70 66/74/66 67/75/67
f 70/78/70 67/75/67 71/79/71
f 72/80/72 68/76/68 69/77/69
f 68/76/68 72/80/72 73/81/73
f 70/78/70 74/82/74 75/83/75
f 74/82/74 70/78/70 71/79/71
f 72/80/72 76/84/76 77/85/77
f 72/80/72 77/85/77 73/81/73
f 78/86/78 75/83/75 74/82/74
f 75/83/75 78/86/78 79/87/79
f 77/85/77 80/88/80 81/89/81
f 80/88/80 77/85/77 76/84/76
f 82/90/82 79/87/79 78/86/78
f 79/87/79 82/90/82 83/91/83
f 80/88/80 84/92/84 81/89/81
f 84/92/84 80/88/80 85/93/85
f 86/94/86 83/91/83 82/90/82
f 83/91/83 86/94/86 87/95/87
f 84/92/84 88/96/88 89/97/89
f 88/96/88 84/92/84 85/93/85
f 86/94/86 90/98/90 91/99/91
f 86/94/86 91/99/91 87/95/87
f 89/97/89 92/100/92 93/101/93
f 92/100/92 89/97/89 88/96/88
f 90/98/90 94/102/94 95/103/95
f 90/98/90 95/103/95 91/99/91
f 92/100/92 96/104/96 93/101/93
f 96/104/96 92/100/92 97/105/97
f 47/55/47 51/59/51 53/61/53
f 51/59/51 47/55/47 49/57/49
f 49/57/49 57/65/57 51/59/51
f 57/65/57 49/57/49 55/63/55
f 57/65/57 58/66/58 61/69/61
f 58/66/58 57/65/57 55/63/55
f 61/69/61 62/70/62 64/72/64
f 62/70/62 61/69/61 58/66/58
f 64/72/64 62/70/62 66/74/66
f 64/72/64 66/74/66 69/77/69
f 66/74/66 70/78/70 69/77/69
f 70/78/70 72/80/72 69/77/69
f 76/84/76 70/78/70 75/83/75
f 70/78/70 76/84/76 72/80/72
f 80/88/80 75/83/75 79/87/79
f 75/83/75 80/88/80 76/84/76
f 79/87/79 85/93/85 80/88/80
f 85/93/85 79/87/79 83/91/83
f 83/91/83 88/96/88 85/93/85
f 88/96/88 83/91/83 87/95/87
f 87/95/87 91/99/91 88/96/88
f 91/99/91 92/100/92 88/96/88
f 97/105/97 92/100/92 95/103/95
f 91/99/91 95/103/95 92/100/92
f 98/106/98 99/107/99 100/108/100
f 99/107/99 98/106/98 101/109/101
f 102/110/102 103/111/103 104/112/104
f 103/111/103 102/110/102 105/113/105
f 106/114/106 98/106/98 107/115/107
f 101/109/101 98/106/98 106/114/106
f 102/110/102 104/112/104 108/116/108
f 108/116/108 109/117/109 102/110/102
f 110/118/110 101/109/101 111/119/111
f 104/112/104 112/120/112 113/121/113
f 111/122/111 112/123/112 110/124/110
f 112/123/112 111/122/111 113/125/113
f 101/109/101 106/114/106 111/119/111
f 108/116/108 104/112/104 113/121/113
f 108/126/108 113/125/113 111/122/111
f 108/126/108 111/122/111 106/127/106
f 107/115/107 114/128/114 115/129/115
f 116/130/116 109/117/109 117/131/117
f 115/132/115 114/133/114 116/134/116
f 116/134/116 117/135/117 115/132/115
f 106/114/106 107/115/107 115/129/115
f 109/117/109 108/116/108 117/131/117
f 115/132/115 108/126/108 106/127/106
f 108/126/108 115/132/115 117/135/117
f 101/109/101 110/118/110 118/136/118
f 112/120/112 104/112/104 119/137/119
f 118/138/118 110/124/110 112/123/112
f 118/138/118 112/123/112 119/139/119
f 99/107/99 101/109/101 118/136/118
f 104/112/104 103/111/103 119/137/119
f 103/140/103 118/138/118 119/139/119
f 118/138/118 103/140/103 99/141/99
f 120/142/120 100/108/100 121/143/121
f 105/113/105 122/144/122 123/145/123
f 122/146/122 121/147/121 123/148/123
f 121/147/121 122/146/122 120/149/120
f 100/108/100 99/107/99 121/143/121
f 103/111/103 105/113/105 123/145/123
f 121/147/121 99/141/99 103/140/103
f 121/147/121 103/140/103 123/148/123
f 114/128/114 107/115/107 124/150/124
f 109/117/109 116/130/116 125/151/125
f 124/152/124 116/134/116 114/133/114
f 116/134/116 124/152/124 125/153/125
f 107/115/107 98/106/98 124/150/124
f 102/110/102 109/117/109 125/151/125
f 124/152/124 98/154/98 102/155/102
f 124/152/124 102/155/102 125/153/125
f 100/108/100 120/142/120 126/156/126
f 122/144/122 105/113/105 127/157/127
f 126/158/126 120/149/120 122/146/122
f 126/158/126 122/146/122 127/159/127
f 98/106/98 100/108/100 126/156/126
f 105/113/105 102/110/102 127/157/127
f 126/158/126 102/155/102 98/154/98
f 102/155/102 126/158/126 127/159/127
f 94/102/94 128/103/128 95/103/95
f 128/103/128 94/102/94 129/102/129
f 130/105/130 95/103/95 128/103/128
f 95/103/95 130/105/130 97/105/97
f 97/105/97 131/104/131 96/104/96
f 131/104/131 97/105/97 130/105/130
f 96/104/96 131/104/131 94/102/94
f 94/102/94 131/104/131 129/102/129
f 130/105/130 129/102/129 131/104/131
f 129/102/129 130/105/130 128/103/128
f 132/58/132 53/61/53 50/58/50
f 53/61/53 132/58/132 133/61/133
f 53/61/53 133/61/133 47/55/47
f 134/55/134 47/55/47 133/61/133
f 47/55/47 134/55/134 48/56/48
f 48/56/48 134/55/134 135/56/135
f 48/56/48 132/58/132 50/58/50
f 132/58/132 48/56/48 135/56/135
f 132/58/132 135/56/135 133/61/133
f 135/56/135 134/55/134 133/61/133
