# Blender v2.70 (sub 0) OBJ File: 'unity_chan.blend'
# www.blender.org
o BLW_DEF
v 0.011253 0.381055 0.050317
v 0.011296 0.384622 0.051058
v 0.009147 0.383427 0.051191
v 0.013225 0.382610 0.050379
v 0.007309 0.382207 0.051205
v 0.008305 0.378660 0.050279
v 0.019510 0.387989 0.049755
v 0.016963 0.387131 0.050238
v 0.017613 0.385757 0.049947
v 0.020314 0.386863 0.049478
v 0.022236 0.388681 0.049156
v 0.022995 0.387801 0.048907
v 0.028195 0.389141 0.047185
v 0.030035 0.390070 0.046441
v 0.027418 0.389705 0.047574
v 0.030441 0.389436 0.046240
v 0.024529 0.389177 0.048597
v 0.025406 0.388512 0.048153
v 0.015076 0.384105 0.050272
v 0.013665 0.385807 0.050740
v -0.009147 0.383427 0.051191
v -0.011296 0.384622 0.051058
v -0.011253 0.381055 0.050317
v -0.013225 0.382610 0.050379
v -0.008305 0.378660 0.050279
v -0.007309 0.382207 0.051205
v -0.019510 0.387989 0.049755
v -0.017613 0.385757 0.049947
v -0.016963 0.387131 0.050238
v -0.020314 0.386863 0.049478
v -0.022236 0.388681 0.049156
v -0.022995 0.387801 0.048907
v -0.030441 0.389436 0.046240
v -0.028195 0.389141 0.047185
v -0.030035 0.390070 0.046441
v -0.027418 0.389705 0.047574
v -0.024529 0.389177 0.048597
v -0.025406 0.388512 0.048153
v -0.013665 0.385807 0.050740
v -0.015076 0.384105 0.050272
vt 0.126030 0.710730
vt 0.126630 0.809180
vt 0.068340 0.775440
vt 0.177910 0.751030
vt 0.017090 0.744180
vt 0.044920 0.645570
vt 0.352840 0.900820
vt 0.282820 0.877170
vt 0.300370 0.839280
vt 0.375000 0.870100
vt 0.427260 0.919930
vt 0.448470 0.895640
vt 0.591180 0.933120
vt 0.640880 0.957490
vt 0.569350 0.947760
vt 0.652770 0.940810
vt 0.490050 0.933460
vt 0.514400 0.915180
vt 0.230510 0.791900
vt 0.192870 0.841640
vn 0.151756 -0.207387 0.966417
vn 0.172731 -0.176207 0.969079
vn 0.161263 -0.211996 0.963873
vn 0.157878 -0.167353 0.973174
vn 0.154707 -0.213423 0.964633
vn 0.156509 -0.207942 0.965539
vn 0.218577 -0.086817 0.971950
vn 0.206215 -0.107027 0.972636
vn 0.206470 -0.106013 0.972693
vn 0.221774 -0.081172 0.971714
vn 0.237796 -0.068796 0.968876
vn 0.255968 -0.080358 0.963339
vn 0.391270 -0.087390 0.916117
vn 0.393951 -0.044985 0.918030
vn 0.365783 -0.131549 0.921356
vn 0.392029 -0.040322 0.919069
vn 0.328557 -0.146672 0.933026
vn 0.350127 -0.155168 0.923761
vn 0.179479 -0.120791 0.976318
vn 0.186739 -0.124441 0.974496
vn -0.161263 -0.211996 0.963874
vn -0.172732 -0.176208 0.969079
vn -0.151756 -0.207386 0.966417
vn -0.157877 -0.167351 0.973174
vn -0.156511 -0.207944 0.965538
vn -0.154706 -0.213423 0.964633
vn -0.218578 -0.086816 0.971950
vn -0.206469 -0.106013 0.972693
vn -0.206213 -0.107027 0.972636
vn -0.221775 -0.081171 0.971713
vn -0.237790 -0.068793 0.968877
vn -0.255963 -0.080355 0.963341
vn -0.392030 -0.040324 0.919068
vn -0.391286 -0.087392 0.916110
vn -0.393955 -0.044987 0.918028
vn -0.365791 -0.131549 0.921353
vn -0.328556 -0.146665 0.933027
vn -0.350115 -0.155154 0.923768
vn -0.186740 -0.124441 0.974496
vn -0.179478 -0.120791 0.976318
s 1
f 1/1/1 2/2/2 3/3/3
f 2/2/2 1/1/1 4/4/4
f 5/5/5 1/1/1 3/3/3
f 1/1/1 5/5/5 6/6/6
f 7/7/7 8/8/8 9/9/9
f 9/9/9 10/10/10 7/7/7
f 10/10/10 11/11/11 7/7/7
f 11/11/11 10/10/10 12/12/12
f 13/13/13 14/14/14 15/15/15
f 14/14/14 13/13/13 16/16/16
f 12/12/12 17/17/17 11/11/11
f 12/12/12 18/18/18 17/17/17
f 18/18/18 15/15/15 17/17/17
f 18/18/18 13/13/13 15/15/15
f 19/19/19 8/8/8 20/20/20
f 8/8/8 19/19/19 9/9/9
f 4/4/4 20/20/20 2/2/2
f 20/20/20 4/4/4 19/19/19
f 21/3/21 22/2/22 23/1/23
f 23/1/23 22/2/22 24/4/24
f 25/6/25 26/5/26 23/1/23
f 26/5/26 21/3/21 23/1/23
f 27/7/27 28/9/28 29/8/29
f 28/9/28 27/7/27 30/10/30
f 27/7/27 31/11/31 30/10/30
f 30/10/30 31/11/31 32/12/32
f 33/16/33 34/13/34 35/14/35
f 36/15/36 35/14/35 34/13/34
f 37/17/37 32/12/32 31/11/31
f 32/12/32 37/17/37 38/18/38
f 36/15/36 38/18/38 37/17/37
f 38/18/38 36/15/36 34/13/34
f 39/20/39 29/8/29 40/19/40
f 40/19/40 29/8/29 28/9/28
f 24/4/24 39/20/39 40/19/40
f 39/20/39 24/4/24 22/2/22
