# Blender v2.70 (sub 0) OBJ File: 'unity_chan.blend'
# www.blender.org
o hair_accce
v 0.128036 0.039099 -0.129377
v 0.113027 0.040247 -0.130956
v 0.117367 0.039743 -0.124847
v 0.120118 0.040020 -0.140477
v 0.132194 0.031317 -0.131910
v 0.123271 0.032363 -0.144242
v 0.122750 0.023091 -0.143081
v 0.130643 0.022195 -0.132257
v 0.116550 0.017303 -0.134700
v 0.120888 0.016825 -0.128787
v 0.129845 0.036788 -0.116029
v 0.118354 0.038470 -0.117458
v 0.134227 0.028712 -0.116955
v 0.132437 0.019904 -0.119036
v 0.121874 0.015568 -0.121524
v 0.115724 0.036762 -0.110719
v 0.125063 0.033683 -0.103871
v 0.128829 0.025222 -0.103324
v 0.127650 0.016820 -0.106944
v 0.119243 0.013869 -0.114855
v 0.114991 0.030604 -0.096037
v 0.110182 0.035067 -0.106369
v 0.117487 0.021767 -0.094552
v 0.117578 0.013758 -0.099143
v 0.113700 0.012179 -0.110541
v 0.102333 0.028366 -0.094533
v 0.103213 0.033834 -0.105526
v 0.103256 0.019254 -0.092876
v 0.104925 0.011526 -0.097647
v 0.106731 0.010947 -0.109710
v 0.090476 0.027562 -0.099733
v 0.096686 0.033390 -0.108401
v 0.089922 0.018346 -0.098705
v 0.093072 0.010714 -0.102835
v 0.100204 0.010502 -0.112574
v 0.082593 0.028414 -0.110277
v 0.092350 0.033859 -0.114240
v 0.081041 0.019295 -0.110532
v 0.085191 0.011546 -0.113347
v 0.095867 0.010966 -0.118376
v 0.091363 0.035118 -0.121524
v 0.080808 0.030703 -0.123428
v 0.079019 0.021867 -0.125291
v 0.083402 0.013815 -0.126434
v 0.094883 0.012216 -0.125589
v 0.093993 0.036840 -0.128368
v 0.085610 0.033834 -0.135777
v 0.084431 0.025399 -0.139123
v 0.088193 0.016928 -0.138661
v 0.097513 0.013921 -0.132308
v 0.095700 0.036989 -0.144157
v 0.099531 0.038570 -0.132988
v 0.095797 0.028962 -0.148386
v 0.098268 0.020054 -0.146774
v 0.103054 0.015626 -0.136733
v 0.106497 0.039830 -0.134029
v 0.108294 0.039329 -0.146542
v 0.109969 0.031542 -0.150453
v 0.110905 0.022323 -0.148461
v 0.110022 0.016866 -0.137624
v 0.105134 0.035019 -0.120184
v 0.108095 0.015749 -0.123519
v -0.128036 0.039099 -0.129377
v -0.113027 0.040247 -0.130956
v -0.120118 0.040020 -0.140477
v -0.117367 0.039743 -0.124847
v -0.132194 0.031317 -0.131910
v -0.123271 0.032363 -0.144242
v -0.122750 0.023091 -0.143081
v -0.130643 0.022195 -0.132257
v -0.116550 0.017303 -0.134700
v -0.120888 0.016825 -0.128787
v -0.129845 0.036788 -0.116029
v -0.118354 0.038470 -0.117458
v -0.134227 0.028712 -0.116955
v -0.132437 0.019904 -0.119036
v -0.121874 0.015568 -0.121524
v -0.115724 0.036762 -0.110719
v -0.125063 0.033683 -0.103871
v -0.128829 0.025222 -0.103324
v -0.127650 0.016820 -0.106944
v -0.119243 0.013869 -0.114855
v -0.114991 0.030604 -0.096037
v -0.110182 0.035067 -0.106369
v -0.117487 0.021767 -0.094552
v -0.117578 0.013758 -0.099143
v -0.113700 0.012179 -0.110541
v -0.102333 0.028366 -0.094533
v -0.103213 0.033834 -0.105526
v -0.103256 0.019254 -0.092876
v -0.104925 0.011526 -0.097647
v -0.106731 0.010947 -0.109710
v -0.090476 0.027562 -0.099733
v -0.096686 0.033390 -0.108401
v -0.089922 0.018346 -0.098705
v -0.093072 0.010714 -0.102835
v -0.100204 0.010502 -0.112574
v -0.092350 0.033859 -0.114240
v -0.082593 0.028414 -0.110277
v -0.081041 0.019295 -0.110532
v -0.085191 0.011546 -0.113347
v -0.095867 0.010966 -0.118376
v -0.091363 0.035118 -0.121524
v -0.080808 0.030703 -0.123428
v -0.079019 0.021867 -0.125291
v -0.083402 0.013815 -0.126434
v -0.094883 0.012216 -0.125589
v -0.093993 0.036840 -0.128368
v -0.085610 0.033834 -0.135777
v -0.084431 0.025399 -0.139123
v -0.088193 0.016928 -0.138661
v -0.097513 0.013921 -0.132308
v -0.099531 0.038570 -0.132988
v -0.095700 0.036989 -0.144157
v -0.095797 0.028962 -0.148386
v -0.098268 0.020054 -0.146774
v -0.103054 0.015626 -0.136733
v -0.106497 0.039830 -0.134029
v -0.108294 0.039329 -0.146542
v -0.109969 0.031542 -0.150453
v -0.110905 0.022323 -0.148461
v -0.110022 0.016866 -0.137624
v -0.105134 0.035019 -0.120184
v -0.108095 0.015749 -0.123519
vt 0.608470 0.972130
vt 0.613810 0.979800
vt 0.607910 0.979800
vt 0.614480 0.972130
vt 0.608410 0.966700
vt 0.614430 0.966700
vt 0.614310 0.961060
vt 0.608360 0.961060
vt 0.614620 0.953370
vt 0.608840 0.953370
vt 0.602340 0.972130
vt 0.601980 0.979800
vt 0.602270 0.966700
vt 0.602280 0.961060
vt 0.602930 0.953370
vt 0.596190 0.979800
vt 0.596370 0.972130
vt 0.596280 0.966700
vt 0.596320 0.961060
vt 0.597030 0.953370
vt 0.590600 0.972130
vt 0.590520 0.979800
vt 0.590500 0.966700
vt 0.590530 0.961060
vt 0.591170 0.953370
vt 0.584820 0.972130
vt 0.584790 0.979800
vt 0.584700 0.966700
vt 0.584700 0.961060
vt 0.585230 0.953370
vt 0.578650 0.972130
vt 0.578670 0.979800
vt 0.578530 0.966700
vt 0.578500 0.961060
vt 0.578880 0.953370
vt 0.571630 0.972130
vt 0.571630 0.979800
vt 0.571630 0.966700
vt 0.571630 0.961060
vt 0.571630 0.953370
vt 0.646530 0.972130
vt 0.646530 0.979800
vt 0.638690 0.979800
vt 0.639260 0.972130
vt 0.639260 0.966700
vt 0.646530 0.966700
vt 0.646530 0.961060
vt 0.639080 0.961060
vt 0.646530 0.953370
vt 0.639060 0.953370
vt 0.631610 0.979800
vt 0.632160 0.972130
vt 0.632190 0.966700
vt 0.632100 0.961060
vt 0.632300 0.953370
vt 0.625700 0.972130
vt 0.625240 0.979800
vt 0.625750 0.966700
vt 0.625750 0.961060
vt 0.626070 0.953370
vt 0.619540 0.979800
vt 0.620070 0.972130
vt 0.620050 0.966700
vt 0.619990 0.961060
vt 0.620270 0.953370
vt 0.610490 0.988550
vt 0.604670 0.988550
vt 0.598880 0.988550
vt 0.593150 0.988550
vt 0.587400 0.988550
vt 0.581410 0.988550
vt 0.574970 0.988550
vt 0.642620 0.988550
vt 0.635100 0.988550
vt 0.628270 0.988550
vt 0.622090 0.988550
vt 0.616260 0.988550
vt 0.612230 0.944570
vt 0.606440 0.944570
vt 0.600530 0.944570
vt 0.594560 0.944570
vt 0.588480 0.944570
vt 0.582110 0.944570
vt 0.575230 0.944570
vt 0.643010 0.944570
vt 0.636140 0.944570
vt 0.629680 0.944570
vt 0.623660 0.944570
vt 0.617910 0.944570
vn 0.552477 0.825861 -0.112522
vn -0.086703 0.989563 0.114902
vn -0.059511 0.986236 0.154180
vn 0.346324 0.845698 -0.405927
vn 0.917875 0.200507 -0.342479
vn 0.620685 0.218757 -0.752892
vn 0.542711 -0.519608 -0.659871
vn 0.758446 -0.533036 -0.374920
vn 0.210364 -0.942076 -0.261086
vn 0.239906 -0.945341 -0.220801
vn 0.595294 0.769280 0.231910
vn -0.053407 0.978515 0.199103
vn 0.981445 0.124210 0.145940
vn 0.806116 -0.591052 -0.028474
vn 0.246010 -0.953459 -0.174200
vn -0.070254 0.967315 0.243599
vn 0.461318 0.690146 0.557512
vn 0.795831 0.010407 0.605396
vn 0.674215 -0.676321 0.296609
vn 0.228278 -0.964873 -0.129887
vn 0.175756 0.607715 0.774438
vn -0.108493 0.955473 0.274331
vn 0.394513 -0.109256 0.912351
vn 0.387646 -0.765252 0.513901
vn 0.188452 -0.977050 -0.099185
vn -0.190741 0.543962 0.817103
vn -0.159948 0.946410 0.280557
vn -0.120914 -0.200201 0.972259
vn 0.019593 -0.830866 0.556078
vn 0.136265 -0.986297 -0.092959
vn -0.532273 0.517716 0.669790
vn -0.207526 0.943175 0.259377
vn -0.601367 -0.234840 0.763634
vn -0.324168 -0.853389 0.408185
vn 0.087710 -0.989563 -0.114109
vn -0.754784 0.535569 0.378704
vn -0.237312 0.946440 0.218879
vn -0.912839 -0.205664 0.352702
vn -0.547685 -0.828425 0.117161
vn 0.056978 -0.986267 -0.154851
vn -0.243324 0.954436 0.172704
vn -0.806360 0.590686 0.029176
vn -0.982086 -0.125462 -0.140477
vn -0.597980 -0.767022 -0.232490
vn 0.050172 -0.978027 -0.202246
vn -0.226966 0.965117 0.130375
vn -0.683584 0.668233 -0.293435
vn -0.804468 -0.018555 -0.593677
vn -0.469741 -0.688772 -0.552141
vn 0.066897 -0.967009 -0.245705
vn -0.413892 0.748100 -0.518632
vn -0.190710 0.976592 0.099429
vn -0.414502 0.086550 -0.905911
vn -0.187964 -0.613147 -0.767266
vn 0.105747 -0.955168 -0.276498
vn -0.136265 0.986358 0.092318
vn -0.013825 0.800104 -0.599689
vn 0.126591 0.158391 -0.979217
vn 0.191290 -0.554186 -0.810083
vn 0.160405 -0.945555 -0.283151
vn -0.148595 0.970702 0.188696
vn 0.149083 -0.971129 -0.186102
vn -0.552477 0.825861 -0.112522
vn 0.086703 0.989563 0.114902
vn -0.346324 0.845698 -0.405927
vn 0.059511 0.986236 0.154180
vn -0.917875 0.200507 -0.342479
vn -0.620685 0.218757 -0.752892
vn -0.542711 -0.519608 -0.659871
vn -0.758446 -0.533036 -0.374920
vn -0.210364 -0.942076 -0.261086
vn -0.239906 -0.945341 -0.220801
vn -0.595294 0.769280 0.231910
vn 0.053407 0.978515 0.199103
vn -0.981445 0.124210 0.145940
vn -0.806116 -0.591052 -0.028474
vn -0.246010 -0.953459 -0.174200
vn 0.070254 0.967315 0.243599
vn -0.461318 0.690146 0.557512
vn -0.795831 0.010407 0.605396
vn -0.674215 -0.676321 0.296609
vn -0.228278 -0.964873 -0.129887
vn -0.175756 0.607715 0.774438
vn 0.108493 0.955473 0.274331
vn -0.394513 -0.109256 0.912351
vn -0.387646 -0.765252 0.513901
vn -0.188452 -0.977050 -0.099185
vn 0.190741 0.543962 0.817103
vn 0.159948 0.946410 0.280557
vn 0.120914 -0.200201 0.972259
vn -0.019593 -0.830866 0.556078
vn -0.136265 -0.986297 -0.092959
vn 0.532273 0.517716 0.669790
vn 0.207526 0.943175 0.259377
vn 0.601367 -0.234840 0.763634
vn 0.324168 -0.853389 0.408185
vn -0.087710 -0.989563 -0.114109
vn 0.237312 0.946440 0.218879
vn 0.754784 0.535569 0.378704
vn 0.912839 -0.205664 0.352702
vn 0.547685 -0.828425 0.117161
vn -0.056978 -0.986267 -0.154851
vn 0.243324 0.954436 0.172704
vn 0.806360 0.590686 0.029176
vn 0.982086 -0.125462 -0.140477
vn 0.597980 -0.767022 -0.232490
vn -0.050172 -0.978027 -0.202246
vn 0.226966 0.965117 0.130375
vn 0.683584 0.668233 -0.293435
vn 0.804468 -0.018555 -0.593677
vn 0.469741 -0.688772 -0.552141
vn -0.066897 -0.967009 -0.245705
vn 0.190710 0.976592 0.099429
vn 0.413892 0.748100 -0.518632
vn 0.414502 0.086550 -0.905881
vn 0.187964 -0.613147 -0.767266
vn -0.105747 -0.955168 -0.276498
vn 0.136265 0.986358 0.092318
vn 0.013825 0.800104 -0.599689
vn -0.126591 0.158391 -0.979217
vn -0.191290 -0.554186 -0.810083
vn -0.160405 -0.945555 -0.283151
vn 0.148595 0.970702 0.188696
vn -0.149083 -0.971129 -0.186102
s 1
f 1/1/1 2/2/2 3/3/3
f 2/2/2 1/1/1 4/4/4
f 4/4/4 1/1/1 5/5/5
f 4/4/4 5/5/5 6/6/6
f 7/7/7 5/5/5 8/8/8
f 5/5/5 7/7/7 6/6/6
f 7/7/7 8/8/8 9/9/9
f 8/8/8 10/10/10 9/9/9
f 11/11/11 3/3/3 12/12/12
f 11/11/11 1/1/1 3/3/3
f 13/13/13 1/1/1 11/11/11
f 1/1/1 13/13/13 5/5/5
f 8/8/8 13/13/13 14/14/14
f 13/13/13 8/8/8 5/5/5
f 15/15/15 8/8/8 14/14/14
f 8/8/8 15/15/15 10/10/10
f 16/16/16 17/17/17 11/11/11
f 16/16/16 11/11/11 12/12/12
f 18/18/18 13/13/13 17/17/17
f 17/17/17 13/13/13 11/11/11
f 19/19/19 13/13/13 18/18/18
f 13/13/13 19/19/19 14/14/14
f 14/14/14 20/20/20 15/15/15
f 20/20/20 14/14/14 19/19/19
f 16/16/16 21/21/21 17/17/17
f 21/21/21 16/16/16 22/22/22
f 23/23/23 17/17/17 21/21/21
f 17/17/17 23/23/23 18/18/18
f 24/24/24 19/19/19 23/23/23
f 18/18/18 23/23/23 19/19/19
f 19/19/19 25/25/25 20/20/20
f 25/25/25 19/19/19 24/24/24
f 26/26/26 22/22/22 27/27/27
f 22/22/22 26/26/26 21/21/21
f 28/28/28 21/21/21 26/26/26
f 21/21/21 28/28/28 23/23/23
f 29/29/29 24/24/24 28/28/28
f 23/23/23 28/28/28 24/24/24
f 24/24/24 30/30/30 25/25/25
f 30/30/30 24/24/24 29/29/29
f 31/31/31 27/27/27 32/32/32
f 27/27/27 31/31/31 26/26/26
f 26/26/26 31/31/31 28/28/28
f 31/31/31 33/33/33 28/28/28
f 34/34/34 28/28/28 33/33/33
f 28/28/28 34/34/34 29/29/29
f 30/30/30 34/34/34 35/35/35
f 29/29/29 34/34/34 30/30/30
f 36/36/36 32/32/32 37/37/37
f 32/32/32 36/36/36 31/31/31
f 31/31/31 38/38/38 33/33/33
f 38/38/38 31/31/31 36/36/36
f 34/34/34 33/33/33 38/38/38
f 34/34/34 38/38/38 39/39/39
f 35/35/35 39/39/39 40/40/40
f 39/39/39 35/35/35 34/34/34
f 36/41/36 37/42/37 41/43/41
f 36/41/36 41/43/41 42/44/42
f 36/41/36 43/45/43 38/46/38
f 43/45/43 36/41/36 42/44/42
f 43/45/43 39/47/39 38/46/38
f 39/47/39 43/45/43 44/48/44
f 40/49/40 39/47/39 44/48/44
f 40/49/40 44/48/44 45/50/45
f 42/44/42 46/51/46 47/52/47
f 46/51/46 42/44/42 41/43/41
f 43/45/43 47/52/47 48/53/48
f 47/52/47 43/45/43 42/44/42
f 43/45/43 49/54/49 44/48/44
f 49/54/49 43/45/43 48/53/48
f 44/48/44 49/54/49 45/50/45
f 49/54/49 50/55/50 45/50/45
f 51/56/51 47/52/47 52/57/52
f 52/57/52 47/52/47 46/51/46
f 53/58/53 47/52/47 51/56/51
f 47/52/47 53/58/53 48/53/48
f 49/54/49 53/58/53 54/59/54
f 53/58/53 49/54/49 48/53/48
f 50/55/50 54/59/54 55/60/55
f 49/54/49 54/59/54 50/55/50
f 56/61/56 57/62/57 51/56/51
f 56/61/56 51/56/51 52/57/52
f 58/63/58 51/56/51 57/62/57
f 51/56/51 58/63/58 53/58/53
f 54/59/54 58/63/58 59/64/59
f 58/63/58 54/59/54 53/58/53
f 55/60/55 59/64/59 60/65/60
f 59/64/59 55/60/55 54/59/54
f 56/61/56 4/4/4 57/62/57
f 4/4/4 56/61/56 2/2/2
f 58/63/58 4/4/4 6/6/6
f 4/4/4 58/63/58 57/62/57
f 7/7/7 58/63/58 6/6/6
f 58/63/58 7/7/7 59/64/59
f 60/65/60 59/64/59 7/7/7
f 60/65/60 7/7/7 9/9/9
f 3/3/3 2/2/2 61/66/61
f 12/12/12 3/3/3 61/67/61
f 16/16/16 12/12/12 61/68/61
f 22/22/22 16/16/16 61/69/61
f 27/27/27 22/22/22 61/70/61
f 32/32/32 27/27/27 61/71/61
f 37/37/37 32/32/32 61/72/61
f 41/43/41 37/42/37 61/73/61
f 46/51/46 41/43/41 61/74/61
f 52/57/52 46/51/46 61/75/61
f 56/61/56 52/57/52 61/76/61
f 2/2/2 56/61/56 61/77/61
f 9/9/9 10/10/10 62/78/62
f 10/10/10 15/15/15 62/79/62
f 15/15/15 20/20/20 62/80/62
f 20/20/20 25/25/25 62/81/62
f 25/25/25 30/30/30 62/82/62
f 30/30/30 35/35/35 62/83/62
f 35/35/35 40/40/40 62/84/62
f 40/49/40 45/50/45 62/85/62
f 45/50/45 50/55/50 62/86/62
f 50/55/50 55/60/55 62/87/62
f 55/60/55 60/65/60 62/88/62
f 60/65/60 9/9/9 62/89/62
f 63/1/63 64/2/64 65/4/65
f 64/2/64 63/1/63 66/3/66
f 67/5/67 65/4/65 68/6/68
f 67/5/67 63/1/63 65/4/65
f 67/5/67 69/7/69 70/8/70
f 69/7/69 67/5/67 68/6/68
f 70/8/70 71/9/71 72/10/72
f 71/9/71 70/8/70 69/7/69
f 73/11/73 74/12/74 66/3/66
f 73/11/73 66/3/66 63/1/63
f 63/1/63 75/13/75 73/11/73
f 75/13/75 63/1/63 67/5/67
f 75/13/75 70/8/70 76/14/76
f 70/8/70 75/13/75 67/5/67
f 77/15/77 76/14/76 70/8/70
f 77/15/77 70/8/70 72/10/72
f 73/11/73 78/16/78 74/12/74
f 78/16/78 73/11/73 79/17/79
f 79/17/79 75/13/75 80/18/80
f 75/13/75 79/17/79 73/11/73
f 75/13/75 81/19/81 80/18/80
f 81/19/81 75/13/75 76/14/76
f 76/14/76 82/20/82 81/19/81
f 82/20/82 76/14/76 77/15/77
f 79/17/79 83/21/83 78/16/78
f 78/16/78 83/21/83 84/22/84
f 83/21/83 79/17/79 85/23/85
f 79/17/79 80/18/80 85/23/85
f 85/23/85 81/19/81 86/24/86
f 81/19/81 85/23/85 80/18/80
f 87/25/87 81/19/81 82/20/82
f 81/19/81 87/25/87 86/24/86
f 88/26/88 84/22/84 83/21/83
f 84/22/84 88/26/88 89/27/89
f 88/26/88 83/21/83 90/28/90
f 83/21/83 85/23/85 90/28/90
f 90/28/90 86/24/86 91/29/91
f 86/24/86 90/28/90 85/23/85
f 91/29/91 86/24/86 92/30/92
f 86/24/86 87/25/87 92/30/92
f 93/31/93 89/27/89 88/26/88
f 93/31/93 94/32/94 89/27/89
f 93/31/93 90/28/90 95/33/95
f 90/28/90 93/31/93 88/26/88
f 95/33/95 90/28/90 96/34/96
f 90/28/90 91/29/91 96/34/96
f 96/34/96 92/30/92 97/35/97
f 92/30/92 96/34/96 91/29/91
f 98/37/98 94/32/94 99/36/99
f 94/32/94 93/31/93 99/36/99
f 95/33/95 100/38/100 93/31/93
f 93/31/93 100/38/100 99/36/99
f 96/34/96 100/38/100 95/33/95
f 100/38/100 96/34/96 101/39/101
f 101/39/101 97/35/97 102/40/102
f 97/35/97 101/39/101 96/34/96
f 99/41/99 103/43/103 98/42/98
f 103/43/103 99/41/99 104/44/104
f 100/46/100 105/45/105 99/41/99
f 99/41/99 105/45/105 104/44/104
f 101/47/101 105/45/105 100/46/100
f 105/45/105 101/47/101 106/48/106
f 102/49/102 106/48/106 101/47/101
f 106/48/106 102/49/102 107/50/107
f 104/44/104 108/51/108 103/43/103
f 108/51/108 104/44/104 109/52/109
f 105/45/105 109/52/109 104/44/104
f 109/52/109 105/45/105 110/53/110
f 111/54/111 105/45/105 106/48/106
f 105/45/105 111/54/111 110/53/110
f 111/54/111 107/50/107 112/55/112
f 107/50/107 111/54/111 106/48/106
f 113/57/113 109/52/109 114/56/114
f 109/52/109 113/57/113 108/51/108
f 115/58/115 109/52/109 110/53/110
f 109/52/109 115/58/115 114/56/114
f 115/58/115 111/54/111 116/59/116
f 111/54/111 115/58/115 110/53/110
f 116/59/116 112/55/112 117/60/117
f 112/55/112 116/59/116 111/54/111
f 118/61/118 114/56/114 119/62/119
f 114/56/114 118/61/118 113/57/113
f 120/63/120 114/56/114 115/58/115
f 114/56/114 120/63/120 119/62/119
f 120/63/120 116/59/116 121/64/121
f 116/59/116 120/63/120 115/58/115
f 121/64/121 117/60/117 122/65/122
f 117/60/117 121/64/121 116/59/116
f 119/62/119 65/4/65 118/61/118
f 118/61/118 65/4/65 64/2/64
f 65/4/65 120/63/120 68/6/68
f 120/63/120 65/4/65 119/62/119
f 69/7/69 120/63/120 121/64/121
f 120/63/120 69/7/69 68/6/68
f 122/65/122 69/7/69 121/64/121
f 69/7/69 122/65/122 71/9/71
f 123/66/123 64/2/64 66/3/66
f 123/67/123 66/3/66 74/12/74
f 123/68/123 74/12/74 78/16/78
f 123/69/123 78/16/78 84/22/84
f 123/70/123 84/22/84 89/27/89
f 123/71/123 89/27/89 94/32/94
f 123/72/123 94/32/94 98/37/98
f 123/73/123 98/42/98 103/43/103
f 123/74/123 103/43/103 108/51/108
f 123/75/123 108/51/108 113/57/113
f 123/76/123 113/57/113 118/61/118
f 123/77/123 118/61/118 64/2/64
f 124/78/124 72/10/72 71/9/71
f 124/79/124 77/15/77 72/10/72
f 124/80/124 82/20/82 77/15/77
f 124/81/124 87/25/87 82/20/82
f 124/82/124 92/30/92 87/25/87
f 124/83/124 97/35/97 92/30/92
f 124/84/124 102/40/102 97/35/97
f 124/85/124 107/50/107 102/49/102
f 124/86/124 112/55/112 107/50/107
f 124/87/124 117/60/117 112/55/112
f 124/88/124 122/65/122 117/60/117
f 124/89/124 71/9/71 122/65/122
