# Blender v2.70 (sub 0) OBJ File: 'unity_chan.blend'
# www.blender.org
o hairband
v 0.010131 0.417572 0.050127
v 0.000000 0.408551 0.052753
v 0.010493 0.407671 0.052624
v 0.000000 0.418215 0.050405
v 0.000000 0.429058 0.046572
v 0.010788 0.428218 0.045627
v 0.020829 0.426128 0.043686
v 0.020905 0.415791 0.047823
v 0.020730 0.406469 0.050460
v 0.031813 0.422107 0.039561
v 0.032414 0.413134 0.043734
v 0.032127 0.404604 0.045878
v 0.041742 0.415488 0.033612
v 0.043258 0.408409 0.036913
v 0.042623 0.400865 0.039116
v 0.000000 0.411453 0.050361
v 0.009913 0.411080 0.050180
v 0.020923 0.409774 0.048638
v 0.032151 0.407093 0.044273
v 0.041773 0.402709 0.038429
v -0.010131 0.417572 0.050127
v -0.010493 0.407671 0.052624
v -0.010788 0.428218 0.045627
v -0.020829 0.426128 0.043686
v -0.020905 0.415791 0.047823
v -0.020730 0.406469 0.050460
v -0.031813 0.422107 0.039561
v -0.032414 0.413134 0.043734
v -0.032127 0.404604 0.045878
v -0.041742 0.415488 0.033612
v -0.043258 0.408409 0.036913
v -0.042623 0.400865 0.039116
v -0.009913 0.411080 0.050180
v -0.020923 0.409774 0.048638
v -0.032151 0.407093 0.044273
v -0.041773 0.402709 0.038429
v 0.049999 0.494578 -0.025509
v 0.043648 0.499999 -0.035440
v 0.041155 0.498424 -0.026524
v 0.052473 0.495730 -0.034001
v 0.044608 0.487421 -0.045138
v 0.052121 0.482759 -0.044023
v 0.051432 0.473538 -0.059065
v 0.057270 0.469282 -0.057350
v 0.055274 0.472395 -0.064997
v 0.060706 0.468425 -0.063321
v 0.022396 0.464595 0.029473
v 0.027164 0.472776 0.023423
v 0.018738 0.475182 0.024219
v 0.014186 0.466785 0.030808
v 0.015412 0.450500 0.033519
v 0.007977 0.452394 0.035381
v 0.098328 0.479734 -0.109832
v 0.081603 0.475627 -0.094361
v 0.084653 0.474592 -0.093598
v 0.071924 0.482935 -0.028836
v 0.069479 0.482466 -0.021745
v 0.076793 0.476382 -0.019687
v 0.079232 0.476700 -0.026055
v 0.069286 0.470690 -0.039407
v 0.075991 0.465398 -0.036762
v 0.070383 0.457677 -0.054046
v 0.075377 0.453128 -0.052624
v 0.047675 0.450849 0.023769
v 0.046097 0.463453 0.021260
v 0.040706 0.455814 0.025609
v 0.053361 0.458254 0.020274
v 0.076456 0.452648 -0.058140
v 0.072539 0.457168 -0.059432
v 0.038027 0.439063 0.026061
v 0.031598 0.442528 0.028584
v 0.092373 0.468568 -0.091565
v 0.089864 0.470951 -0.092148
v 0.034732 0.492452 -0.010193
v 0.043446 0.489056 -0.009743
v 0.062756 0.477814 -0.007829
v 0.070054 0.472006 -0.006720
v 0.027107 0.484620 0.007255
v 0.035678 0.481717 0.007085
v 0.054800 0.471431 0.006966
v 0.062081 0.465927 0.007031
v -0.043648 0.499999 -0.035440
v -0.049999 0.494578 -0.025509
v -0.041155 0.498424 -0.026524
v -0.052473 0.495730 -0.034001
v -0.044608 0.487421 -0.045138
v -0.052121 0.482759 -0.044023
v -0.051432 0.473538 -0.059065
v -0.057270 0.469282 -0.057350
v -0.055274 0.472395 -0.064997
v -0.060706 0.468425 -0.063321
v -0.022396 0.464595 0.029473
v -0.018738 0.475182 0.024219
v -0.027164 0.472776 0.023423
v -0.014186 0.466785 0.030808
v -0.015412 0.450500 0.033519
v -0.007977 0.452394 0.035381
v -0.084653 0.474592 -0.093598
v -0.081603 0.475627 -0.094361
v -0.098328 0.479734 -0.109832
v -0.071924 0.482935 -0.028836
v -0.076793 0.476382 -0.019687
v -0.069479 0.482466 -0.021745
v -0.079232 0.476700 -0.026055
v -0.069286 0.470690 -0.039407
v -0.075991 0.465398 -0.036762
v -0.070383 0.457677 -0.054046
v -0.075377 0.453128 -0.052624
v -0.047675 0.450849 0.023769
v -0.046097 0.463453 0.021260
v -0.053361 0.458254 0.020274
v -0.040706 0.455814 0.025609
v -0.072539 0.457168 -0.059432
v -0.076456 0.452648 -0.058140
v -0.038027 0.439063 0.026061
v -0.031598 0.442528 0.028584
v -0.089864 0.470951 -0.092148
v -0.092373 0.468568 -0.091565
v -0.043446 0.489056 -0.009743
v -0.034732 0.492452 -0.010193
v -0.062756 0.477814 -0.007829
v -0.070054 0.472006 -0.006720
v -0.027107 0.484620 0.007255
v -0.035678 0.481717 0.007085
v -0.054800 0.471431 0.006966
v -0.062081 0.465927 0.007031
v 0.067984 0.473131 -0.080536
v 0.072226 0.470628 -0.079317
v 0.080747 0.463180 -0.076647
v 0.083960 0.459728 -0.075710
v -0.067984 0.473131 -0.080536
v -0.072226 0.470628 -0.079317
v -0.080747 0.463180 -0.076647
v -0.083960 0.459728 -0.075710
vt 0.337140 0.203920
vt 0.323190 0.191080
vt 0.336390 0.191000
vt 0.323210 0.203900
vt 0.323210 0.219700
vt 0.337540 0.219160
vt 0.351510 0.217500
vt 0.351250 0.202970
vt 0.351130 0.190590
vt 0.367020 0.214020
vt 0.367090 0.201820
vt 0.368400 0.190100
vt 0.385690 0.210570
vt 0.386020 0.199650
vt 0.385530 0.190150
vt 0.323180 0.181060
vt 0.336790 0.181860
vt 0.351960 0.182580
vt 0.368870 0.184450
vt 0.384860 0.186950
vt 0.309310 0.203960
vt 0.310010 0.191040
vt 0.308900 0.219140
vt 0.294990 0.217510
vt 0.295230 0.203070
vt 0.295260 0.190680
vt 0.279530 0.214180
vt 0.279380 0.202000
vt 0.277960 0.190300
vt 0.260900 0.210920
vt 0.260420 0.200060
vt 0.260780 0.190470
vt 0.309600 0.181870
vt 0.294430 0.182600
vt 0.277600 0.184590
vt 0.261460 0.187110
vt 0.190730 0.053170
vt 0.184970 0.061690
vt 0.184970 0.052380
vt 0.190730 0.062660
vt 0.187140 0.068630
vt 0.192270 0.069330
vt 0.191690 0.083180
vt 0.195510 0.083330
vt 0.192030 0.085170
vt 0.195590 0.085170
vt 0.190730 0.014110
vt 0.190730 0.019890
vt 0.184970 0.019700
vt 0.184970 0.014020
vt 0.190730 0.009240
vt 0.184970 0.009240
vt 0.196360 0.110650
vt 0.194750 0.101200
vt 0.196050 0.101360
vt 0.204370 0.064950
vt 0.204370 0.055060
vt 0.209900 0.055830
vt 0.209900 0.065880
vt 0.204430 0.071000
vt 0.209360 0.071670
vt 0.204560 0.083680
vt 0.208220 0.083820
vt 0.209900 0.014400
vt 0.204370 0.020350
vt 0.204370 0.014320
vt 0.209900 0.020530
vt 0.207340 0.085810
vt 0.203960 0.085530
vt 0.209900 0.009240
vt 0.204370 0.009240
vt 0.200440 0.101420
vt 0.199170 0.101480
vt 0.184970 0.042180
vt 0.190730 0.042780
vt 0.204370 0.044230
vt 0.209900 0.044810
vt 0.184970 0.030980
vt 0.190730 0.031370
vt 0.204370 0.032330
vt 0.209900 0.032710
vt 0.193390 0.093180
vt 0.195820 0.093260
vt 0.201560 0.093510
vt 0.203890 0.093610
vn 0.142094 0.311838 0.939421
vn 0.000000 -0.882534 0.470199
vn 0.033235 -0.881558 0.470870
vn 0.000000 0.301401 0.953490
vn -0.000000 0.333336 0.942808
vn 0.164773 0.361734 0.917605
vn 0.335870 0.352836 0.873326
vn 0.321207 0.309488 0.894986
vn -0.038148 -0.899533 0.435133
vn 0.512046 0.372599 0.773938
vn 0.504624 0.307566 0.806665
vn 0.025391 -0.891018 0.453230
vn 0.621723 0.408901 0.668028
vn 0.597238 0.297454 0.744868
vn 0.320463 -0.525606 0.788062
vn 0.000000 -0.636010 -0.771681
vn -0.111590 -0.597376 -0.794159
vn -0.321273 -0.458562 -0.828556
vn -0.503201 -0.458427 -0.732553
vn -0.589408 -0.497216 -0.636691
vn -0.142094 0.311838 0.939421
vn -0.033235 -0.881558 0.470870
vn -0.164773 0.361734 0.917605
vn -0.335870 0.352835 0.873326
vn -0.321207 0.309488 0.894986
vn 0.038148 -0.899533 0.435133
vn -0.512046 0.372598 0.773938
vn -0.504624 0.307566 0.806665
vn -0.025391 -0.891018 0.453230
vn -0.621724 0.408902 0.668026
vn -0.597238 0.297455 0.744867
vn -0.320441 -0.525608 0.788070
vn 0.111590 -0.597376 -0.794159
vn 0.321273 -0.458562 -0.828556
vn 0.503201 -0.458427 -0.732553
vn 0.589413 -0.497221 -0.636681
vn 0.399060 0.849635 0.344737
vn 0.444541 0.872450 -0.203015
vn 0.337961 0.873541 0.350297
vn 0.515000 0.813257 -0.270791
vn 0.462224 0.616181 -0.637707
vn 0.534074 0.609912 -0.585437
vn 0.603047 0.768193 -0.214975
vn 0.641591 0.759514 -0.106998
vn 0.508366 0.813821 0.281530
vn 0.534928 0.777886 0.329722
vn 0.282144 0.305002 0.909574
vn 0.317423 0.608295 0.727439
vn 0.258762 0.621713 0.739267
vn 0.246909 0.318811 0.915093
vn 0.294138 0.143834 0.944878
vn 0.281461 0.178147 0.942891
vn 0.365897 0.762666 0.533347
vn 0.206195 0.878824 0.430293
vn 0.287332 0.815546 0.502274
vn 0.631703 0.732200 -0.254555
vn 0.492996 0.793329 0.357158
vn 0.526202 0.762856 0.375715
vn 0.679398 0.693038 -0.241074
vn 0.598285 0.542283 -0.589862
vn 0.638113 0.524152 -0.563983
vn 0.690695 0.706565 -0.153783
vn 0.690192 0.697428 -0.192951
vn 0.302248 0.114423 0.946337
vn 0.387158 0.483902 0.784783
vn 0.305399 0.165166 0.937773
vn 0.411168 0.438323 0.799258
vn 0.646130 0.697838 0.309092
vn 0.619709 0.701163 0.352550
vn 0.319874 -0.025610 0.947114
vn 0.310374 0.028898 0.950175
vn 0.480433 0.649866 0.588946
vn 0.426038 0.697501 0.576128
vn 0.299613 0.832653 0.465747
vn 0.355998 0.805017 0.474532
vn 0.442518 0.738517 0.508652
vn 0.475039 0.705610 0.525788
vn 0.280311 0.795551 0.537144
vn 0.342998 0.763878 0.546617
vn 0.436476 0.682211 0.586535
vn 0.472400 0.643645 0.602129
vn -0.444541 0.872449 -0.203016
vn -0.399060 0.849635 0.344737
vn -0.337962 0.873542 0.350295
vn -0.515000 0.813257 -0.270791
vn -0.462224 0.616181 -0.637707
vn -0.534074 0.609912 -0.585437
vn -0.603047 0.768192 -0.214975
vn -0.641591 0.759514 -0.106998
vn -0.508366 0.813821 0.281530
vn -0.534928 0.777886 0.329722
vn -0.282144 0.305002 0.909574
vn -0.258762 0.621713 0.739266
vn -0.317423 0.608295 0.727439
vn -0.246909 0.318811 0.915093
vn -0.294137 0.143834 0.944878
vn -0.281461 0.178147 0.942891
vn -0.287332 0.815546 0.502274
vn -0.206195 0.878822 0.430298
vn -0.365897 0.762666 0.533348
vn -0.631703 0.732200 -0.254555
vn -0.526202 0.762856 0.375715
vn -0.492996 0.793329 0.357158
vn -0.679398 0.693038 -0.241074
vn -0.598285 0.542283 -0.589862
vn -0.638113 0.524152 -0.563983
vn -0.690695 0.706565 -0.153783
vn -0.690191 0.697427 -0.192954
vn -0.302247 0.114423 0.946337
vn -0.387158 0.483902 0.784783
vn -0.411168 0.438323 0.799258
vn -0.305399 0.165166 0.937773
vn -0.619709 0.701163 0.352550
vn -0.646130 0.697839 0.309090
vn -0.319874 -0.025610 0.947114
vn -0.310374 0.028898 0.950175
vn -0.426038 0.697501 0.576128
vn -0.480433 0.649867 0.588945
vn -0.355998 0.805017 0.474532
vn -0.299613 0.832653 0.465747
vn -0.442518 0.738517 0.508652
vn -0.475039 0.705610 0.525787
vn -0.280311 0.795551 0.537144
vn -0.342998 0.763878 0.546617
vn -0.436476 0.682211 0.586535
vn -0.472400 0.643645 0.602130
vn 0.373969 0.822701 0.428148
vn 0.412061 0.772942 0.482376
vn 0.491043 0.680624 0.543687
vn 0.530688 0.645294 0.549515
vn -0.373969 0.822701 0.428148
vn -0.412061 0.772942 0.482376
vn -0.491043 0.680624 0.543687
vn -0.530687 0.645294 0.549514
s 1
f 1/1/1 2/2/2 3/3/3
f 2/2/2 1/1/1 4/4/4
f 5/5/5 4/4/4 6/6/6
f 4/4/4 1/1/1 6/6/6
f 7/7/7 1/1/1 8/8/8
f 1/1/1 7/7/7 6/6/6
f 8/8/8 1/1/1 3/3/3
f 8/8/8 3/3/3 9/9/9
f 10/10/10 8/8/8 11/11/11
f 8/8/8 10/10/10 7/7/7
f 11/11/11 8/8/8 9/9/9
f 11/11/11 9/9/9 12/12/12
f 11/11/11 13/13/13 10/10/10
f 13/13/13 11/11/11 14/14/14
f 14/14/14 11/11/11 12/12/12
f 14/14/14 12/12/12 15/15/15
f 16/16/16 17/17/17 2/2/2
f 3/3/3 2/2/2 17/17/17
f 17/17/17 18/18/18 3/3/3
f 9/9/9 3/3/3 18/18/18
f 18/18/18 19/19/19 9/9/9
f 12/12/12 9/9/9 19/19/19
f 19/19/19 20/20/20 12/12/12
f 15/15/15 12/12/12 20/20/20
f 4/4/4 21/21/21 2/2/2
f 21/21/21 22/22/22 2/2/2
f 23/23/23 4/4/4 5/5/5
f 4/4/4 23/23/23 21/21/21
f 24/24/24 21/21/21 23/23/23
f 21/21/21 24/24/24 25/25/25
f 25/25/25 22/22/22 21/21/21
f 22/22/22 25/25/25 26/26/26
f 27/27/27 25/25/25 24/24/24
f 25/25/25 27/27/27 28/28/28
f 28/28/28 26/26/26 25/25/25
f 26/26/26 28/28/28 29/29/29
f 30/30/30 28/28/28 27/27/27
f 28/28/28 30/30/30 31/31/31
f 31/31/31 29/29/29 28/28/28
f 29/29/29 31/31/31 32/32/32
f 33/33/33 2/2/2 22/22/22
f 2/2/2 33/33/33 16/16/16
f 34/34/34 22/22/22 26/26/26
f 22/22/22 34/34/34 33/33/33
f 35/35/35 26/26/26 29/29/29
f 26/26/26 35/35/35 34/34/34
f 36/36/36 29/29/29 32/32/32
f 29/29/29 36/36/36 35/35/35
f 37/37/37 38/38/38 39/39/39
f 38/38/38 37/37/37 40/40/40
f 41/41/41 40/40/40 42/42/42
f 40/40/40 41/41/41 38/38/38
f 42/42/42 43/43/43 41/41/41
f 43/43/43 42/42/42 44/44/44
f 44/44/44 45/45/45 43/43/43
f 45/45/45 44/44/44 46/46/46
f 47/47/47 48/48/48 49/49/49
f 49/49/49 50/50/50 47/47/47
f 51/51/51 47/47/47 50/50/50
f 50/50/50 52/52/52 51/51/51
f 53/53/53 54/54/54 55/55/55
f 56/56/56 57/57/57 58/58/58
f 58/58/58 59/59/59 56/56/56
f 60/60/60 56/56/56 59/59/59
f 60/60/60 59/59/59 61/61/61
f 62/62/62 60/60/60 61/61/61
f 61/61/61 63/63/63 62/62/62
f 64/64/64 65/65/65 66/66/66
f 65/65/65 64/64/64 67/67/67
f 62/62/62 68/68/68 69/69/69
f 68/68/68 62/62/62 63/63/63
f 70/70/70 66/66/66 71/71/71
f 66/66/66 70/70/70 64/64/64
f 72/72/72 53/53/53 73/73/73
f 37/37/37 57/57/57 40/40/40
f 57/57/57 56/56/56 40/40/40
f 42/42/42 40/40/40 56/56/56
f 42/42/42 56/56/56 60/60/60
f 42/42/42 62/62/62 44/44/44
f 62/62/62 42/42/42 60/60/60
f 44/44/44 62/62/62 46/46/46
f 62/62/62 69/69/69 46/46/46
f 65/65/65 48/48/48 66/66/66
f 66/66/66 48/48/48 47/47/47
f 66/66/66 47/47/47 71/71/71
f 71/71/71 47/47/47 51/51/51
f 73/73/73 53/53/53 55/55/55
f 39/39/39 74/74/74 75/75/75
f 75/75/75 37/37/37 39/39/39
f 75/75/75 76/76/76 37/37/37
f 76/76/76 57/57/57 37/37/37
f 57/57/57 76/76/76 77/77/77
f 77/77/77 58/58/58 57/57/57
f 48/48/48 78/78/78 49/49/49
f 78/78/78 48/48/48 79/79/79
f 65/65/65 79/79/79 48/48/48
f 79/79/79 65/65/65 80/80/80
f 67/67/67 80/80/80 65/65/65
f 80/80/80 67/67/67 81/81/81
f 79/79/79 74/74/74 78/78/78
f 74/74/74 79/79/79 75/75/75
f 80/80/80 75/75/75 79/79/79
f 75/75/75 80/80/80 76/76/76
f 81/81/81 76/76/76 80/80/80
f 76/76/76 81/81/81 77/77/77
f 82/38/82 83/37/83 84/39/84
f 83/37/83 82/38/82 85/40/85
f 86/41/86 85/40/85 82/38/82
f 86/41/86 87/42/87 85/40/85
f 88/43/88 87/42/87 86/41/86
f 87/42/87 88/43/88 89/44/89
f 90/45/90 89/44/89 88/43/88
f 89/44/89 90/45/90 91/46/91
f 92/47/92 93/49/93 94/48/94
f 93/49/93 92/47/92 95/50/95
f 96/51/96 95/50/95 92/47/92
f 95/50/95 96/51/96 97/52/97
f 98/55/98 99/54/99 100/53/100
f 101/56/101 102/58/102 103/57/103
f 102/58/102 101/56/101 104/59/104
f 105/60/105 104/59/104 101/56/101
f 104/59/104 105/60/105 106/61/106
f 107/62/107 106/61/106 105/60/105
f 106/61/106 107/62/107 108/63/108
f 109/64/109 110/65/110 111/67/111
f 110/65/110 109/64/109 112/66/112
f 107/62/107 113/69/113 114/68/114
f 107/62/107 114/68/114 108/63/108
f 115/70/115 112/66/112 109/64/109
f 112/66/112 115/70/115 116/71/116
f 117/73/117 100/53/100 118/72/118
f 85/40/85 103/57/103 83/37/83
f 103/57/103 85/40/85 101/56/101
f 87/42/87 101/56/101 85/40/85
f 101/56/101 87/42/87 105/60/105
f 89/44/89 107/62/107 87/42/87
f 105/60/105 87/42/87 107/62/107
f 91/46/91 107/62/107 89/44/89
f 107/62/107 91/46/91 113/69/113
f 112/66/112 94/48/94 110/65/110
f 94/48/94 112/66/112 92/47/92
f 116/71/116 92/47/92 112/66/112
f 92/47/92 116/71/116 96/51/96
f 98/55/98 100/53/100 117/73/117
f 84/39/84 119/75/119 120/74/120
f 119/75/119 84/39/84 83/37/83
f 83/37/83 121/76/121 119/75/119
f 121/76/121 83/37/83 103/57/103
f 103/57/103 122/77/122 121/76/121
f 122/77/122 103/57/103 102/58/102
f 93/49/93 123/78/123 94/48/94
f 123/78/123 124/79/124 94/48/94
f 110/65/110 94/48/94 124/79/124
f 124/79/124 125/80/125 110/65/110
f 111/67/111 125/80/125 126/81/126
f 125/80/125 111/67/111 110/65/110
f 123/78/123 120/74/120 124/79/124
f 120/74/120 119/75/119 124/79/124
f 125/80/125 124/79/124 119/75/119
f 119/75/119 121/76/121 125/80/125
f 122/77/122 126/81/126 121/76/121
f 125/80/125 121/76/121 126/81/126
f 54/54/54 127/82/127 128/83/128
f 128/83/128 55/55/55 54/54/54
f 46/46/46 127/82/127 45/45/45
f 127/82/127 46/46/46 128/83/128
f 55/55/55 128/83/128 129/84/129
f 129/84/129 73/73/73 55/55/55
f 69/69/69 128/83/128 46/46/46
f 128/83/128 69/69/69 129/84/129
f 73/73/73 129/84/129 130/85/130
f 130/85/130 72/72/72 73/73/73
f 68/68/68 129/84/129 69/69/69
f 129/84/129 68/68/68 130/85/130
f 131/82/131 91/46/91 90/45/90
f 91/46/91 131/82/131 132/83/132
f 98/55/98 132/83/132 99/54/99
f 131/82/131 99/54/99 132/83/132
f 132/83/132 113/69/113 91/46/91
f 113/69/113 132/83/132 133/84/133
f 117/73/117 133/84/133 98/55/98
f 132/83/132 98/55/98 133/84/133
f 133/84/133 114/68/114 113/69/113
f 114/68/114 133/84/133 134/85/134
f 118/72/118 134/85/134 117/73/117
f 133/84/133 117/73/117 134/85/134
