# Blender v2.70 (sub 0) OBJ File: 'unity_chan.blend'
# www.blender.org
o hair_front
v 0.021456 0.432260 0.043373
v 0.013132 0.428556 0.048736
v 0.026054 0.414270 0.050253
v 0.064535 0.372706 0.038200
v 0.045999 0.389939 0.047048
v 0.057035 0.370082 0.039649
v 0.051884 0.395800 0.044964
v 0.067191 0.374885 0.031851
v 0.052165 0.400853 0.039243
v 0.037211 0.401452 0.049053
v 0.042323 0.409616 0.046523
v 0.044529 0.409985 0.040925
v 0.058300 0.315666 0.024440
v 0.050059 0.309178 0.020202
v 0.061176 0.315172 0.023657
v 0.060105 0.316398 0.020693
v 0.034540 0.418890 0.046398
v 0.035139 0.419729 0.041612
v 0.055344 0.349437 0.028409
v 0.056061 0.370296 0.037278
v 0.048673 0.368411 0.038102
v 0.062700 0.351182 0.028705
v 0.063786 0.357238 0.024112
v 0.059547 0.375786 0.030033
v 0.045891 0.388788 0.044533
v 0.039450 0.384872 0.045364
v 0.049291 0.394996 0.039012
v 0.054819 0.328367 0.019971
v 0.050285 0.320075 0.014866
v 0.057962 0.327574 0.018965
v 0.058844 0.328633 0.016280
v 0.030084 0.400733 0.049087
v 0.033894 0.404406 0.049370
v 0.042286 0.408145 0.042106
v 0.033436 0.418570 0.041792
v 0.025827 0.414362 0.049736
v 0.023398 0.428787 0.040984
v 0.016300 0.424524 0.048171
v 0.013915 0.435057 0.039354
v 0.008910 0.431901 0.047285
v 0.065820 0.323865 0.026454
v 0.067004 0.324287 0.021222
v 0.061085 0.324883 0.028318
v 0.061635 0.335501 0.022299
v 0.056185 0.336632 0.023015
v 0.064626 0.338668 0.018076
v 0.021828 0.413446 0.050434
v 0.014142 0.423622 0.048078
v 0.031122 0.408347 0.050911
v 0.069365 0.333511 0.028754
v 0.072864 0.343908 0.024066
v 0.071096 0.342699 0.030731
v 0.069847 0.332182 0.022556
v 0.063186 0.334408 0.030863
v 0.063090 0.343141 0.032994
v 0.071952 0.353241 0.026994
v 0.069250 0.356006 0.034613
v 0.061456 0.355162 0.036551
v -0.026054 0.414270 0.050253
v -0.013132 0.428556 0.048736
v -0.021456 0.432260 0.043373
v -0.045999 0.389939 0.047048
v -0.064535 0.372706 0.038200
v -0.057035 0.370082 0.039649
v -0.051884 0.395800 0.044964
v -0.067191 0.374885 0.031851
v -0.052165 0.400853 0.039243
v -0.037211 0.401452 0.049053
v -0.042323 0.409616 0.046523
v -0.044529 0.409985 0.040925
v -0.061176 0.315172 0.023657
v -0.050059 0.309178 0.020202
v -0.058300 0.315666 0.024440
v -0.060105 0.316398 0.020693
v -0.034540 0.418890 0.046398
v -0.035139 0.419729 0.041612
v -0.056061 0.370296 0.037278
v -0.055344 0.349437 0.028409
v -0.048673 0.368411 0.038102
v -0.062700 0.351182 0.028705
v -0.063786 0.357238 0.024112
v -0.059547 0.375786 0.030033
v -0.045891 0.388788 0.044533
v -0.039450 0.384872 0.045364
v -0.049291 0.394996 0.039012
v -0.057962 0.327574 0.018965
v -0.050285 0.320075 0.014866
v -0.054819 0.328367 0.019971
v -0.058844 0.328633 0.016280
v -0.030084 0.400733 0.049087
v -0.033894 0.404406 0.049370
v -0.042286 0.408145 0.042106
v -0.025827 0.414362 0.049736
v -0.033436 0.418570 0.041792
v -0.016300 0.424524 0.048171
v -0.023398 0.428787 0.040984
v -0.013915 0.435057 0.039354
v -0.008910 0.431901 0.047285
v -0.065820 0.323865 0.026454
v -0.067004 0.324287 0.021222
v -0.061085 0.324883 0.028318
v -0.061635 0.335501 0.022299
v -0.056185 0.336632 0.023015
v -0.064626 0.338668 0.018076
v -0.021828 0.413446 0.050434
v -0.014142 0.423622 0.048078
v -0.031122 0.408347 0.050911
v -0.069365 0.333511 0.028754
v -0.071096 0.342699 0.030731
v -0.072864 0.343908 0.024066
v -0.069847 0.332182 0.022556
v -0.063186 0.334408 0.030863
v -0.063090 0.343141 0.032994
v -0.069250 0.356006 0.034613
v -0.071952 0.353241 0.026994
v -0.061456 0.355162 0.036551
v 0.019077 0.452370 0.049947
v 0.010668 0.460637 0.041404
v 0.010066 0.454738 0.050992
v 0.020139 0.457980 0.039648
v 0.033704 0.442939 0.049749
v 0.035215 0.449754 0.037072
v 0.003070 0.450656 0.047727
v 0.002376 0.455948 0.039351
v -0.000070 0.452228 0.036199
v 0.000345 0.446790 0.044027
v 0.066598 0.421467 0.038002
v 0.046049 0.432435 0.048163
v 0.059287 0.413875 0.045087
v 0.049367 0.436953 0.040371
v 0.051898 0.437930 0.034751
v 0.061844 0.420247 0.030558
v 0.071394 0.402660 0.038714
v 0.075295 0.411643 0.035397
v 0.084166 0.405181 0.031098
v 0.079542 0.398134 0.032600
v 0.071174 0.409670 0.027754
v 0.079982 0.403680 0.025333
v 0.086471 0.396608 0.027717
v 0.089892 0.401217 0.026967
v 0.086839 0.400494 0.023039
v 0.093546 0.396597 0.023722
v 0.100729 0.398966 0.019726
v 0.094570 0.399719 0.023890
v 0.094323 0.399002 0.021276
v -0.007814 0.430532 0.045980
v 0.007814 0.430532 0.045980
v -0.007921 0.433688 0.046742
v -0.010868 0.435308 0.039428
v 0.007921 0.433688 0.046742
v 0.010868 0.435308 0.039428
v -0.003398 0.435044 0.042979
v 0.003398 0.435044 0.042979
v 0.003060 0.435248 0.044134
v 0.005356 0.430924 0.042979
v 0.003342 0.433223 0.042982
v -0.003060 0.435248 0.044134
v 0.001374 0.424185 0.052723
v 0.005037 0.433900 0.044698
v 0.000210 0.434904 0.045740
v 0.009538 0.422925 0.050412
v 0.002310 0.412964 0.058818
v 0.010796 0.411081 0.054401
v 0.004433 0.372817 0.055571
v 0.001868 0.377108 0.061659
v 0.001050 0.371310 0.059323
v 0.006307 0.379330 0.056551
v 0.002302 0.366554 0.054126
v -0.000126 0.365755 0.056430
v -0.001783 0.359712 0.053009
v -0.000498 0.360424 0.052103
v 0.010083 0.401926 0.056351
v 0.002558 0.393098 0.062405
v 0.009054 0.392810 0.057307
v 0.002699 0.402714 0.061261
v 0.007763 0.384995 0.057021
v 0.002338 0.384242 0.062835
v 0.002545 0.422040 0.052184
v -0.003828 0.433961 0.044785
v -0.004285 0.420579 0.049771
v 0.000311 0.434625 0.045669
v 0.002301 0.410818 0.056758
v -0.005052 0.410290 0.052749
v -0.009425 0.381943 0.057404
v -0.006428 0.386102 0.058583
v -0.011365 0.386265 0.055144
v -0.013550 0.382178 0.054747
v -0.012943 0.378225 0.055766
v -0.015732 0.378946 0.054469
v -0.017304 0.374605 0.053692
v -0.018629 0.375022 0.053429
v -0.006071 0.403135 0.054460
v -0.000533 0.397748 0.059494
v 0.001030 0.403690 0.058594
v -0.007391 0.397388 0.055286
v -0.003518 0.391083 0.059283
v -0.009278 0.391137 0.055542
v -0.020335 0.372652 0.052193
v -0.002276 0.355627 0.050016
vt 0.394940 0.876050
vt 0.274950 0.943150
vt 0.274950 0.881220
vt 0.357060 0.515760
vt 0.274950 0.729110
vt 0.274950 0.517780
vt 0.357060 0.701010
vt 0.394940 0.514840
vt 0.394940 0.688050
vt 0.274950 0.820520
vt 0.357060 0.783800
vt 0.394940 0.766850
vt 0.310770 0.247880
vt 0.345610 0.146980
vt 0.349320 0.258520
vt 0.367110 0.263430
vt 0.357060 0.840520
vt 0.394940 0.821740
vt 0.172050 0.354450
vt 0.222510 0.520950
vt 0.172050 0.523900
vt 0.222510 0.359090
vt 0.273270 0.363760
vt 0.273270 0.517980
vt 0.222510 0.620210
vt 0.172050 0.646980
vt 0.273270 0.593290
vt 0.172050 0.238160
vt 0.226930 0.124780
vt 0.222510 0.246670
vt 0.273270 0.255230
vt 0.172050 0.777210
vt 0.222510 0.740800
vt 0.273270 0.704180
vt 0.273270 0.796930
vt 0.222510 0.824550
vt 0.273270 0.889130
vt 0.222510 0.929020
vt 0.352800 0.306170
vt 0.379620 0.311790
vt 0.294670 0.293980
vt 0.222510 0.292570
vt 0.172050 0.285640
vt 0.273270 0.299540
vt 0.172050 0.830100
vt 0.172050 0.936910
vt 0.274950 0.843520
vt 0.354780 0.333290
vt 0.394940 0.371030
vt 0.357060 0.364520
vt 0.384660 0.331270
vt 0.285150 0.321220
vt 0.274950 0.350430
vt 0.394940 0.414130
vt 0.357060 0.432000
vt 0.274950 0.426620
vt 0.434310 0.845510
vt 0.471910 0.867060
vt 0.434310 0.880670
vt 0.471910 0.836770
vt 0.434310 0.793090
vt 0.471910 0.781870
vt 0.434310 0.898980
vt 0.471910 0.892120
vt 0.473290 0.926000
vt 0.434310 0.927750
vt 0.454290 0.633940
vt 0.434310 0.711400
vt 0.434310 0.625610
vt 0.454290 0.710450
vt 0.471910 0.709610
vt 0.471910 0.641300
vt 0.434310 0.583160
vt 0.454290 0.590700
vt 0.454290 0.558260
vt 0.434310 0.551310
vt 0.471910 0.597370
vt 0.471910 0.564400
vt 0.444020 0.518190
vt 0.453680 0.521330
vt 0.461900 0.523290
vt 0.448570 0.502690
vt 0.453110 0.487190
vt 0.453440 0.506830
vt 0.457220 0.504070
vt 0.207540 0.940790
vt 0.321050 0.917370
vt 0.247890 0.909070
vt 0.215030 0.934900
vt 0.242580 0.827280
vt 0.281530 0.836800
vt 0.241670 0.903460
vt 0.284240 0.788220
vt 0.243480 0.751100
vt 0.286960 0.739640
vt 0.265900 0.532950
vt 0.239060 0.550820
vt 0.239460 0.521300
vt 0.269100 0.567040
vt 0.262710 0.498860
vt 0.239850 0.491780
vt 0.241870 0.450670
vt 0.253300 0.454220
vt 0.284030 0.696970
vt 0.237630 0.645700
vt 0.281110 0.654300
vt 0.240560 0.698400
vt 0.275100 0.610670
vt 0.238350 0.598260
vt 0.223620 0.764130
vt 0.174270 0.891080
vt 0.179500 0.807080
vt 0.217840 0.819320
vt 0.229400 0.708940
vt 0.184740 0.723080
vt 0.215600 0.505450
vt 0.218040 0.536500
vt 0.188410 0.520510
vt 0.189490 0.493520
vt 0.213160 0.474390
vt 0.190570 0.466540
vt 0.203320 0.437600
vt 0.193180 0.431040
vt 0.184210 0.668240
vt 0.227270 0.620970
vt 0.228340 0.664960
vt 0.183670 0.613410
vt 0.222660 0.578730
vt 0.186040 0.566960
vt 0.195800 0.395540
vt 0.243890 0.409570
vt 0.251060 0.460480
vn 0.323607 0.600388 0.731309
vn 0.300633 0.500076 0.812123
vn 0.246015 0.361789 0.899214
vn 0.644551 0.063662 0.761895
vn 0.329616 -0.022097 0.943856
vn 0.244842 -0.172958 0.954012
vn 0.626728 0.230110 0.744469
vn 0.874973 0.241600 0.419585
vn 0.792032 0.450739 0.411728
vn 0.323606 0.078520 0.942928
vn 0.584582 0.402051 0.704672
vn 0.740055 0.592702 0.317841
vn 0.131171 -0.547468 0.826482
vn 0.452399 -0.887803 0.084505
vn 0.658315 -0.710593 0.248238
vn 0.708167 -0.585779 -0.394160
vn 0.523331 0.564806 0.638020
vn 0.694085 0.689277 0.207709
vn 0.067925 -0.386923 0.919607
vn 0.590655 -0.103336 0.800256
vn 0.197285 -0.323409 0.925465
vn 0.661611 -0.212043 0.719230
vn 0.934076 0.074772 0.349157
vn 0.840398 0.133518 0.525265
vn 0.514115 0.010315 0.857631
vn 0.235315 -0.184728 0.954203
vn 0.700568 0.189354 0.688004
vn 0.160529 -0.467059 0.869532
vn 0.454188 -0.737856 0.499282
vn 0.576586 -0.634297 0.514939
vn 0.818141 -0.571100 0.067013
vn 0.087179 -0.146609 0.985345
vn 0.336619 0.101596 0.936125
vn 0.558518 0.270078 0.784293
vn 0.491056 0.462884 0.737972
vn 0.322214 0.321940 0.890225
vn 0.389570 0.578714 0.716467
vn 0.195318 0.358501 0.912839
vn 0.246149 0.784739 0.568854
vn -0.236091 0.535447 0.810877
vn 0.661153 -0.491226 0.567003
vn 0.847207 -0.509462 0.150630
vn 0.266392 -0.360507 0.893907
vn 0.564226 -0.466720 0.681021
vn 0.055397 -0.389819 0.919224
vn 0.891573 -0.307970 0.332044
vn 0.105175 0.196443 0.974858
vn -0.091865 0.059907 0.993968
vn 0.309344 0.227088 0.923438
vn 0.715201 -0.336711 0.612415
vn 0.968207 -0.115235 0.222027
vn 0.732566 -0.187017 0.654439
vn 0.933368 -0.326963 0.148053
vn 0.270373 -0.274196 0.922884
vn 0.253730 -0.233878 0.938575
vn 0.952475 0.065091 0.297582
vn 0.693228 -0.042573 0.719443
vn 0.252963 -0.182716 0.950065
vn -0.246016 0.361790 0.899213
vn -0.300632 0.500075 0.812124
vn -0.323606 0.600388 0.731310
vn -0.329616 -0.022097 0.943856
vn -0.644551 0.063662 0.761895
vn -0.244842 -0.172958 0.954012
vn -0.626728 0.230110 0.744469
vn -0.874973 0.241599 0.419585
vn -0.792032 0.450739 0.411727
vn -0.323606 0.078520 0.942928
vn -0.584582 0.402051 0.704672
vn -0.740056 0.592702 0.317839
vn -0.658315 -0.710593 0.248238
vn -0.452400 -0.887802 0.084510
vn -0.131171 -0.547463 0.826486
vn -0.708168 -0.585779 -0.394160
vn -0.523331 0.564806 0.638020
vn -0.694085 0.689277 0.207709
vn -0.590655 -0.103336 0.800256
vn -0.067926 -0.386923 0.919607
vn -0.197285 -0.323410 0.925465
vn -0.661611 -0.212043 0.719230
vn -0.934076 0.074772 0.349157
vn -0.840398 0.133518 0.525265
vn -0.514115 0.010315 0.857631
vn -0.235316 -0.184728 0.954202
vn -0.700568 0.189354 0.688004
vn -0.576586 -0.634297 0.514939
vn -0.454188 -0.737856 0.499281
vn -0.160528 -0.467058 0.869533
vn -0.818141 -0.571100 0.067013
vn -0.087179 -0.146609 0.985345
vn -0.336619 0.101596 0.936125
vn -0.558518 0.270078 0.784293
vn -0.322214 0.321940 0.890225
vn -0.491056 0.462884 0.737972
vn -0.195318 0.358501 0.912839
vn -0.389570 0.578714 0.716467
vn -0.374128 0.703602 0.604130
vn 0.079104 0.361644 0.928922
vn -0.661153 -0.491226 0.567003
vn -0.847207 -0.509462 0.150631
vn -0.266392 -0.360507 0.893907
vn -0.564226 -0.466720 0.681021
vn -0.055397 -0.389818 0.919224
vn -0.891573 -0.307970 0.332044
vn -0.105175 0.196442 0.974858
vn 0.091865 0.059907 0.993968
vn -0.309344 0.227088 0.923438
vn -0.715201 -0.336711 0.612415
vn -0.732566 -0.187017 0.654439
vn -0.968207 -0.115235 0.222027
vn -0.933368 -0.326963 0.148053
vn -0.270373 -0.274196 0.922884
vn -0.253729 -0.233877 0.938575
vn -0.693228 -0.042573 0.719443
vn -0.952475 0.065091 0.297582
vn -0.252963 -0.182716 0.950065
vn 0.395592 0.783253 0.479606
vn -0.113682 0.845123 0.522344
vn -0.175884 0.843300 0.507849
vn 0.406436 0.783865 0.469431
vn 0.522222 0.707815 0.475691
vn 0.515061 0.731433 0.446898
vn -0.731121 0.562968 0.385394
vn -0.742229 0.537976 0.399598
vn -0.893828 0.344692 0.286809
vn -0.891720 0.346466 0.291197
vn 0.773705 0.585467 0.241951
vn 0.576511 0.528661 0.623019
vn 0.529976 0.214926 0.820325
vn 0.589282 0.650166 0.479568
vn 0.653175 0.698549 0.292219
vn 0.640534 0.579344 -0.504059
vn 0.519156 0.038437 0.853815
vn 0.733696 0.596973 0.324442
vn 0.716544 0.587512 0.375988
vn 0.533616 -0.173771 0.827682
vn 0.509405 0.726158 -0.461738
vn 0.332337 0.834131 -0.440202
vn 0.497389 -0.202571 0.843545
vn 0.631733 0.598865 0.492141
vn 0.225771 0.906354 -0.357142
vn 0.501569 -0.213621 0.838328
vn 0.465929 0.680017 0.566116
vn 0.531571 0.656575 0.535081
vn 0.024838 0.963465 -0.266679
vn 0.570098 -0.279958 0.772406
vn -0.601908 -0.243278 0.760607
vn -0.165910 0.890084 0.424528
vn -0.140920 0.953088 0.267889
vn 0.165911 0.890084 0.424528
vn 0.140920 0.953088 0.267889
vn -0.083624 0.965270 0.247508
vn 0.083624 0.965270 0.247508
vn -0.597211 -0.377571 0.707657
vn 0.217865 0.897454 -0.383550
vn -0.615576 -0.418002 0.668086
vn -0.050231 0.729711 0.681908
vn 0.303703 0.507437 0.806395
vn 0.290953 0.541735 0.788587
vn 0.283544 0.544937 0.789079
vn 0.352851 0.466938 0.810843
vn 0.456774 0.306805 0.835002
vn 0.508625 0.249431 0.824066
vn 0.766864 -0.342948 0.542499
vn 0.778070 -0.244767 0.578529
vn 0.750196 -0.367487 0.549690
vn 0.763480 -0.240498 0.599382
vn 0.703310 -0.447798 0.552115
vn 0.683648 -0.468374 0.559688
vn 0.666911 -0.493711 0.558103
vn 0.668824 -0.493947 0.555599
vn 0.571988 0.095032 0.814738
vn 0.634010 -0.004527 0.773312
vn 0.614996 -0.054145 0.786669
vn 0.541490 0.133434 0.830051
vn 0.701344 -0.136408 0.699650
vn 0.747934 -0.094153 0.657061
vn -0.365972 0.353083 0.861044
vn -0.290155 0.387827 0.874872
vn -0.397909 0.330592 0.855791
vn -0.252839 0.408982 0.876816
vn -0.456072 0.303210 0.836697
vn -0.481628 0.279683 0.830549
vn -0.540193 0.170701 0.824047
vn -0.548954 0.181995 0.815798
vn -0.547571 0.181505 0.816836
vn -0.491261 0.168554 0.854548
vn -0.446803 0.109113 0.887954
vn -0.390760 0.054579 0.918873
vn -0.274423 -0.133090 0.952354
vn -0.254060 -0.211549 0.943769
vn -0.505904 0.255795 0.823790
vn -0.512407 0.232261 0.826737
vn -0.492815 0.272020 0.826522
vn -0.522425 0.216401 0.824768
vn -0.528228 0.199194 0.825407
vn -0.541357 0.188137 0.819474
vn -0.271986 -0.283954 0.919453
vn 0.667011 -0.491014 0.560359
s 1
f 1/1/1 2/2/2 3/3/3
f 4/4/4 5/5/5 6/6/6
f 5/5/5 4/4/4 7/7/7
f 7/7/7 4/4/4 8/8/8
f 8/8/8 9/9/9 7/7/7
f 7/7/7 10/10/10 5/5/5
f 10/10/10 7/7/7 11/11/11
f 11/11/11 7/7/7 9/9/9
f 11/11/11 9/9/9 12/12/12
f 13/13/13 14/14/14 15/15/15
f 14/14/14 16/16/16 15/15/15
f 17/17/17 11/11/11 12/12/12
f 17/17/17 12/12/12 18/18/18
f 18/18/18 1/1/1 17/17/17
f 1/1/1 3/3/3 17/17/17
f 19/19/19 20/20/20 21/21/21
f 20/20/20 19/19/19 22/22/22
f 20/20/20 22/22/22 23/23/23
f 23/23/23 24/24/24 20/20/20
f 21/21/21 25/25/25 26/26/26
f 25/25/25 21/21/21 20/20/20
f 25/25/25 20/20/20 24/24/24
f 24/24/24 27/27/27 25/25/25
f 28/28/28 29/29/29 30/30/30
f 29/29/29 31/31/31 30/30/30
f 25/25/25 32/32/32 26/26/26
f 32/32/32 25/25/25 33/33/33
f 33/33/33 25/25/25 27/27/27
f 33/33/33 27/27/27 34/34/34
f 33/33/33 35/35/35 36/36/36
f 35/35/35 33/33/33 34/34/34
f 36/36/36 37/37/37 38/38/38
f 37/37/37 36/36/36 35/35/35
f 38/38/38 39/37/39 40/38/40
f 39/37/39 38/38/38 37/37/37
f 16/16/16 41/39/41 15/15/15
f 41/39/41 16/16/16 42/40/42
f 15/15/15 41/39/41 43/41/43
f 43/41/43 13/13/13 15/15/15
f 19/19/19 44/42/44 22/22/22
f 44/42/44 19/19/19 45/43/45
f 45/43/45 30/30/30 44/42/44
f 30/30/30 45/43/45 28/28/28
f 22/22/22 44/42/44 46/44/46
f 46/44/46 23/23/23 22/22/22
f 31/31/31 44/42/44 30/30/30
f 44/42/44 31/31/31 46/44/46
f 32/32/32 33/33/33 47/45/47
f 33/33/33 36/36/36 47/45/47
f 47/45/47 36/36/36 48/46/48
f 36/36/36 38/38/38 48/46/48
f 10/10/10 11/11/11 49/47/49
f 17/17/17 3/3/3 49/47/49
f 11/11/11 17/17/17 49/47/49
f 50/48/50 51/49/51 52/50/52
f 51/49/51 50/48/50 53/51/53
f 42/40/42 53/51/53 41/39/41
f 50/48/50 41/39/41 53/51/53
f 52/50/52 54/52/54 50/48/50
f 54/52/54 52/50/52 55/53/55
f 54/52/54 41/39/41 50/48/50
f 41/39/41 54/52/54 43/41/43
f 52/50/52 56/54/56 57/55/57
f 56/54/56 52/50/52 51/49/51
f 8/8/8 57/55/57 56/54/56
f 57/55/57 8/8/8 4/4/4
f 55/53/55 57/55/57 58/56/58
f 57/55/57 55/53/55 52/50/52
f 58/56/58 4/4/4 6/6/6
f 4/4/4 58/56/58 57/55/57
f 59/3/59 60/2/60 61/1/61
f 62/5/62 63/4/63 64/6/64
f 63/4/63 62/5/62 65/7/65
f 66/8/66 65/7/65 67/9/67
f 65/7/65 66/8/66 63/4/63
f 68/10/68 65/7/65 62/5/62
f 65/7/65 68/10/68 69/11/69
f 69/11/69 67/9/67 65/7/65
f 67/9/67 69/11/69 70/12/70
f 71/15/71 72/14/72 73/13/73
f 71/15/71 74/16/74 72/14/72
f 75/17/75 70/12/70 69/11/69
f 70/12/70 75/17/75 76/18/76
f 75/17/75 61/1/61 76/18/76
f 75/17/75 59/3/59 61/1/61
f 77/20/77 78/19/78 79/21/79
f 78/19/78 77/20/77 80/22/80
f 81/23/81 77/20/77 82/24/82
f 77/20/77 81/23/81 80/22/80
f 83/25/83 79/21/79 84/26/84
f 79/21/79 83/25/83 77/20/77
f 82/24/82 83/25/83 85/27/85
f 83/25/83 82/24/82 77/20/77
f 86/30/86 87/29/87 88/28/88
f 86/30/86 89/31/89 87/29/87
f 90/32/90 83/25/83 84/26/84
f 83/25/83 90/32/90 91/33/91
f 91/33/91 85/27/85 83/25/83
f 85/27/85 91/33/91 92/34/92
f 91/33/91 93/36/93 94/35/94
f 91/33/91 94/35/94 92/34/92
f 93/36/93 95/38/95 96/37/96
f 93/36/93 96/37/96 94/35/94
f 96/37/96 95/38/95 97/37/97
f 95/38/95 98/38/98 97/37/97
f 71/15/71 99/39/99 74/16/74
f 99/39/99 100/40/100 74/16/74
f 71/15/71 101/41/101 99/39/99
f 101/41/101 71/15/71 73/13/73
f 78/19/78 102/42/102 103/43/103
f 102/42/102 78/19/78 80/22/80
f 86/30/86 103/43/103 102/42/102
f 103/43/103 86/30/86 88/28/88
f 104/44/104 80/22/80 81/23/81
f 80/22/80 104/44/104 102/42/102
f 86/30/86 102/42/102 89/31/89
f 102/42/102 104/44/104 89/31/89
f 105/45/105 91/33/91 90/32/90
f 105/45/105 93/36/93 91/33/91
f 106/46/106 93/36/93 105/45/105
f 106/46/106 95/38/95 93/36/93
f 107/47/107 69/11/69 68/10/68
f 107/47/107 59/3/59 75/17/75
f 107/47/107 75/17/75 69/11/69
f 108/48/108 109/50/109 110/49/110
f 108/48/108 110/49/110 111/51/111
f 99/39/99 111/51/111 100/40/100
f 111/51/111 99/39/99 108/48/108
f 109/50/109 112/52/112 113/53/113
f 112/52/112 109/50/109 108/48/108
f 99/39/99 112/52/112 108/48/108
f 112/52/112 99/39/99 101/41/101
f 109/50/109 114/55/114 115/54/115
f 109/50/109 115/54/115 110/49/110
f 66/8/66 114/55/114 63/4/63
f 114/55/114 66/8/66 115/54/115
f 113/53/113 116/56/116 114/55/114
f 114/55/114 109/50/109 113/53/113
f 63/4/63 116/56/116 64/6/64
f 116/56/116 63/4/63 114/55/114
f 117/57/117 118/58/118 119/59/119
f 118/58/118 117/57/117 120/60/120
f 117/57/117 121/61/121 120/60/120
f 121/61/121 122/62/122 120/60/120
f 123/63/123 118/58/118 124/64/124
f 118/58/118 123/63/123 119/59/119
f 125/65/125 126/66/126 124/64/124
f 124/64/124 126/66/126 123/63/123
f 127/67/127 128/68/128 129/69/129
f 128/68/128 127/67/127 130/70/130
f 127/67/127 131/71/131 130/70/130
f 131/71/131 127/67/127 132/72/132
f 121/61/121 128/68/128 130/70/130
f 130/70/130 131/71/131 122/62/122
f 121/61/121 130/70/130 122/62/122
f 129/69/129 133/73/133 134/74/134
f 134/74/134 127/67/127 129/69/129
f 135/75/135 133/73/133 136/76/136
f 133/73/133 135/75/135 134/74/134
f 134/74/134 137/77/137 127/67/127
f 137/77/137 132/72/132 127/67/127
f 138/78/138 134/74/134 135/75/135
f 134/74/134 138/78/138 137/77/137
f 139/79/139 140/80/140 135/75/135
f 135/75/135 136/76/136 139/79/139
f 141/81/141 135/75/135 140/80/140
f 135/75/135 141/81/141 138/78/138
f 142/82/142 143/83/143 144/84/144
f 144/84/144 140/80/140 142/82/142
f 140/80/140 139/79/139 142/82/142
f 144/84/144 143/83/143 145/85/145
f 141/81/141 144/84/144 145/85/145
f 144/84/144 141/81/141 140/80/140
f 98/38/98 95/38/95 106/46/106
f 38/38/38 40/38/40 48/46/48
f 98/38/98 106/46/106 146/86/146
f 48/46/48 40/38/40 147/86/147
f 61/1/61 60/2/60 148/2/148
f 149/1/149 61/1/61 148/2/148
f 2/2/2 1/1/1 150/2/150
f 1/1/1 151/1/151 150/2/150
f 149/1/149 148/2/148 152/87/152
f 150/2/150 151/1/151 153/87/153
f 154/38/154 40/38/40 155/37/155
f 39/37/39 155/37/155 40/38/40
f 156/86/156 147/86/147 40/38/40
f 40/38/40 154/38/154 156/86/156
f 97/37/97 98/38/98 157/88/157
f 98/38/98 146/86/146 157/89/157
f 158/90/158 159/91/159 160/92/160
f 159/91/159 158/90/158 161/93/161
f 161/93/161 162/94/162 163/95/163
f 162/94/162 161/93/161 158/90/158
f 164/96/164 165/97/165 166/98/166
f 165/97/165 164/96/164 167/99/167
f 168/100/168 166/98/166 169/101/169
f 166/98/166 168/100/168 164/96/164
f 169/101/169 170/102/170 171/103/171
f 171/103/171 168/100/168 169/101/169
f 172/104/172 173/105/173 174/106/174
f 173/105/173 172/104/172 175/107/175
f 163/95/163 175/107/175 172/104/172
f 175/107/175 163/95/163 162/94/162
f 173/105/173 176/108/176 174/106/174
f 176/108/176 173/105/173 177/109/177
f 167/99/167 177/109/177 165/97/165
f 177/109/177 167/99/167 176/108/176
f 178/110/178 179/111/179 180/112/180
f 179/111/179 178/110/178 181/113/181
f 178/110/178 180/112/180 182/114/182
f 180/112/180 183/115/183 182/114/182
f 184/116/184 185/117/185 186/118/186
f 186/118/186 187/119/187 184/116/184
f 188/120/188 184/116/184 187/119/187
f 187/119/187 189/121/189 188/120/188
f 190/122/190 188/120/188 189/121/189
f 190/122/190 189/121/189 191/123/191
f 192/124/192 193/125/193 194/126/194
f 193/125/193 192/124/192 195/127/195
f 183/115/183 194/126/194 182/114/182
f 194/126/194 183/115/183 192/124/192
f 195/127/195 196/128/196 193/125/193
f 196/128/196 195/127/195 197/129/197
f 196/128/196 197/129/197 185/117/185
f 197/129/197 186/118/186 185/117/185
f 191/123/191 198/130/198 190/122/190
f 170/102/170 199/131/199 171/132/171
